<?xml version="1.0" encoding="utf-8" ?><!DOCTYPE svg PUBLIC "-//W3C//DTD SVG 1.1//EN" "http://www.w3.org/Graphics/SVG/1.1/DTD/svg11.dtd" 
[ <!ATTLIST svg 
  xmlns:dsy CDATA #FIXED "http://www.3ds.com/print"  
    dsy:text-version CDATA #IMPLIED > 

  <!ATTLIST text 
  xmlns:dsy CDATA #FIXED "http://www.3ds.com/print" 
    dsy:text-version CDATA #IMPLIED > 
]><svg xmlns="http://www.w3.org/2000/svg" xmlns:dsy="http://www.3ds.com/print" dsy:text-version="20000" width="1189" height="841" viewBox="0 0 1189 841" version="1.1"><g stroke="rgb(0, 0, 0)" stroke-width="0.35" stroke-linecap="butt" stroke-linejoin="miter" fill="none"><path d="M 102.684 24.7089 A 9.99999 9.99999 0 0 0 102.479 4.71002"/><path d="M 102.479 4.70996 L 87.3133 4.86505"/><path d="M 87.3133 4.86505 A 4.99998 4.99998 0 0 0 77.647 4.96387"/><path d="M 77.647 4.96393 L 18.4852 5.56891"/><path d="M 18.4852 5.56891 A 9.99999 9.99999 0 0 0 8.58798 15.4661"/><path d="M 7.983 74.6279 L 8.58797 15.4661"/><path d="M 7.98301 74.628 A 4.99998 4.99998 0 0 0 7.88417 84.2942"/><path d="M 7.72908 99.46 L 7.88416 84.2942"/><path d="M 7.72908 99.46 A 9.99999 9.99999 0 0 0 27.728 99.6645"/><path d="M 27.728 99.6646 L 27.8831 84.4987"/><path d="M 27.8831 84.4987 A 4.99998 4.99998 0 0 0 27.982 74.8325"/><path d="M 27.982 74.8325 L 28.3866 35.2647"/><path d="M 38.2838 25.3675 A 9.99999 9.99999 0 0 0 28.3866 35.2647"/><path d="M 77.8515 24.9629 L 38.2838 25.3675"/><path d="M 77.8515 24.9628 A 4.99998 4.99998 0 0 0 87.5178 24.864"/><path d="M 102.684 24.7089 L 87.5178 24.864"/><circle cx="102.581" cy="14.7095" r="4.99998"/><circle cx="18.5874" cy="15.5684" r="5.5"/><circle cx="17.7285" cy="99.5623" r="4.99998"/><circle cx="82.6716" cy="23.6335" r="1.45002"/><circle cx="82.4933" cy="6.1944" r="1.45002"/><circle cx="9.21352" cy="79.4742" r="1.45002"/><circle cx="26.6526" cy="79.6525" r="1.45002"/><path d="M 130.598 48.7801 A 9.99998 9.99998 0 0 0 130.394 28.7812"/><path d="M 130.394 28.7811 L 115.228 28.9362"/><path d="M 115.228 28.9362 A 4.99999 4.99999 0 0 0 105.561 29.035"/><path d="M 105.561 29.0351 L 46.3996 29.6401"/><path d="M 46.3996 29.6401 A 9.99998 9.99998 0 0 0 36.5024 39.5373"/><path d="M 35.8974 98.6991 L 36.5024 39.5373"/><path d="M 35.8974 98.6992 A 4.99999 4.99999 0 0 0 35.7985 108.365"/><path d="M 35.6435 123.531 L 35.7985 108.365"/><path d="M 35.6435 123.531 A 9.99998 9.99998 0 0 0 55.6424 123.736"/><path d="M 55.6424 123.736 L 55.7975 108.57"/><path d="M 55.7975 108.57 A 4.99999 4.99999 0 0 0 55.8963 98.9036"/><path d="M 55.8963 98.9036 L 56.3009 59.3359"/><path d="M 66.1982 49.4387 A 9.99998 9.99998 0 0 0 56.301 59.3359"/><path d="M 105.766 49.0341 L 66.1982 49.4387"/><path d="M 105.766 49.034 A 4.99999 4.99999 0 0 0 115.432 48.9352"/><path d="M 130.598 48.7801 L 115.432 48.9352"/><circle cx="130.496" cy="38.7806" r="4.99999"/><circle cx="46.5018" cy="39.6395" r="5.50001"/><circle cx="45.6429" cy="123.633" r="4.99999"/><circle cx="110.586" cy="47.7047" r="1.45001"/><circle cx="110.408" cy="30.2656" r="1.45001"/><circle cx="37.1279" cy="103.545" r="1.45001"/><circle cx="54.567" cy="103.724" r="1.45001"/><path d="M 171.651 0.948608 A 10 10 0 0 0 171.651 20.9486"/><path d="M 171.651 20.9486 L 235.162 20.9486"/><path d="M 239.388 21.8855 A 10 10 0 0 0 235.162 20.9486"/><path d="M 267.701 35.0881 L 239.388 21.8856"/><path d="M 273.134 41.563 A 10 10 0 0 0 267.701 35.0881"/><path d="M 273.134 41.563 L 293.856 118.898"/><path d="M 293.856 118.898 A 5 5 0 0 0 296.358 128.236"/><path d="M 296.358 128.236 L 300.283 142.886"/><path d="M 300.283 142.886 A 10 10 0 1 0 319.602 137.709"/><path d="M 315.677 123.06 L 319.602 137.709"/><path d="M 315.677 123.06 A 5 5 0 0 0 313.175 113.722"/><path d="M 290.039 27.3782 L 313.175 113.722"/><path d="M 290.039 27.3782 A 10 10 0 0 0 284.606 20.9033"/><path d="M 284.606 20.9034 L 243.822 1.88556"/><path d="M 243.822 1.8855 A 10 10 0 0 0 239.596 0.948608"/><path d="M 171.651 0.948608 L 239.596 0.948608"/><circle cx="171.651" cy="10.9486" r="2.25"/><circle cx="239.596" cy="10.9486" r="5"/><circle cx="280.38" cy="29.9664" r="5"/><circle cx="309.943" cy="140.298" r="5"/><circle cx="313.189" cy="118.722" r="1.45"/><circle cx="296.343" cy="123.236" r="1.45"/><path d="M 150.911 24.1641 A 10 10 0 0 0 150.911 44.1641"/><path d="M 150.911 44.1641 L 214.421 44.1641"/><path d="M 218.647 45.101 A 10 10 0 0 0 214.421 44.1641"/><path d="M 246.961 58.3036 L 218.647 45.1011"/><path d="M 252.394 64.7785 A 10 10 0 0 0 246.96 58.3036"/><path d="M 252.394 64.7785 L 273.116 142.114"/><path d="M 273.116 142.114 A 5 5 0 0 0 275.618 151.451"/><path d="M 275.618 151.451 L 279.543 166.101"/><path d="M 279.543 166.101 A 10 10 0 1 0 298.861 160.925"/><path d="M 294.936 146.275 L 298.861 160.925"/><path d="M 294.936 146.275 A 5 5 0 0 0 292.434 136.938"/><path d="M 269.298 50.5938 L 292.434 136.938"/><path d="M 269.298 50.5938 A 10 10 0 0 0 263.865 44.1188"/><path d="M 263.865 44.1189 L 223.081 25.1011"/><path d="M 223.081 25.101 A 10 10 0 0 0 218.855 24.1641"/><path d="M 150.911 24.1641 L 218.855 24.1641"/><circle cx="150.911" cy="34.1641" r="2.25"/><circle cx="218.855" cy="34.1641" r="5"/><circle cx="259.639" cy="53.1819" r="5"/><circle cx="289.202" cy="163.513" r="5"/><circle cx="292.449" cy="141.938" r="1.45"/><circle cx="275.603" cy="146.451" r="1.45"/><path d="M 122.996 175.008 L 122.996 167.508"/><path d="M 122.996 167.508 L 117.996 167.508"/><path d="M 117.996 167.508 L 117.996 162.508"/><path d="M 117.996 162.508 L 122.996 162.508"/><path d="M 122.996 162.508 L 122.996 157.508"/><path d="M 122.996 157.508 L 117.996 157.508"/><path d="M 117.996 157.508 L 117.996 152.508"/><path d="M 117.996 152.508 L 122.996 152.508"/><path d="M 122.996 152.508 L 122.996 145.008"/><path d="M 122.996 145.008 L 145.495 145.008"/><path d="M 167.995 145.008 L 145.495 145.008"/><path d="M 167.995 152.508 L 167.995 145.008"/><path d="M 172.995 152.508 L 167.995 152.508"/><path d="M 172.995 157.508 L 172.995 152.508"/><path d="M 167.995 157.508 L 172.995 157.508"/><path d="M 167.996 162.508 L 167.995 157.508"/><path d="M 172.996 162.508 L 167.996 162.508"/><path d="M 172.996 167.508 L 172.996 162.508"/><path d="M 167.996 167.508 L 172.996 167.508"/><path d="M 167.996 175.008 L 167.996 167.508"/><path d="M 167.996 175.008 L 145.496 175.008"/><path d="M 122.996 175.008 L 145.496 175.008"/><path d="M 202.195 597.101 L 202.195 574.601"/><path d="M 202.195 574.601 L 189.695 574.601"/><path d="M 189.695 574.601 L 189.695 569.601"/><path d="M 189.695 569.601 L 184.695 569.601"/><path d="M 184.695 569.601 L 184.695 574.601"/><path d="M 184.695 574.601 L 179.695 574.601"/><path d="M 179.695 574.601 L 179.695 569.601"/><path d="M 179.695 569.601 L 174.695 569.601"/><path d="M 174.695 569.601 L 174.695 574.601"/><path d="M 174.695 574.601 L 169.695 574.601"/><path d="M 169.695 574.601 L 169.695 569.601"/><path d="M 169.695 569.601 L 164.695 569.601"/><path d="M 164.695 569.601 L 164.695 574.601"/><path d="M 164.695 574.601 L 159.695 574.601"/><path d="M 159.695 574.601 L 159.695 569.601"/><path d="M 159.695 569.601 L 154.695 569.601"/><path d="M 154.695 569.601 L 154.695 574.601"/><path d="M 154.695 574.601 L 149.695 574.601"/><path d="M 149.695 574.601 L 149.695 569.601"/><path d="M 149.695 569.601 L 144.695 569.601"/><path d="M 144.695 569.601 L 144.695 574.601"/><path d="M 144.695 574.601 L 139.695 574.601"/><path d="M 139.695 574.601 L 139.695 569.601"/><path d="M 139.695 569.601 L 134.695 569.601"/><path d="M 134.695 569.601 L 134.695 574.601"/><path d="M 134.695 574.601 L 129.695 574.601"/><path d="M 129.695 574.601 L 129.695 569.601"/><path d="M 129.695 569.601 L 124.695 569.601"/><path d="M 124.695 569.601 L 124.695 574.601"/><path d="M 124.695 574.601 L 119.695 574.601"/><path d="M 119.695 574.601 L 119.695 569.601"/><path d="M 119.695 569.601 L 114.695 569.601"/><path d="M 114.695 569.601 L 114.695 574.601"/><path d="M 114.695 574.601 L 109.695 574.601"/><path d="M 109.695 574.601 L 109.695 569.601"/><path d="M 109.695 569.601 L 104.695 569.601"/><path d="M 104.695 569.601 L 104.695 574.601"/><path d="M 104.695 574.601 L 92.1949 574.601"/><path d="M 92.1949 574.601 L 92.1949 597.101"/><path d="M 92.1949 619.601 L 92.1949 597.101"/><path d="M 104.695 619.601 L 92.1949 619.601"/><path d="M 104.695 624.601 L 104.695 619.601"/><path d="M 109.695 624.601 L 104.695 624.601"/><path d="M 109.695 619.601 L 109.695 624.601"/><path d="M 114.695 619.601 L 109.695 619.601"/><path d="M 114.695 624.601 L 114.695 619.601"/><path d="M 119.695 624.601 L 114.695 624.601"/><path d="M 119.695 619.601 L 119.695 624.601"/><path d="M 124.695 619.601 L 119.695 619.601"/><path d="M 124.695 624.601 L 124.695 619.601"/><path d="M 129.695 624.601 L 124.695 624.601"/><path d="M 129.695 619.601 L 129.695 624.601"/><path d="M 134.695 619.601 L 129.695 619.601"/><path d="M 134.695 624.601 L 134.695 619.601"/><path d="M 139.695 624.601 L 134.695 624.601"/><path d="M 139.695 619.601 L 139.695 624.601"/><path d="M 144.695 619.601 L 139.695 619.601"/><path d="M 144.695 624.601 L 144.695 619.601"/><path d="M 149.695 624.601 L 144.695 624.601"/><path d="M 149.695 619.601 L 149.695 624.601"/><path d="M 154.695 619.601 L 149.695 619.601"/><path d="M 154.695 624.601 L 154.695 619.601"/><path d="M 159.695 624.601 L 154.695 624.601"/><path d="M 159.695 619.601 L 159.695 624.601"/><path d="M 164.695 619.601 L 159.695 619.601"/><path d="M 164.695 624.601 L 164.695 619.601"/><path d="M 169.695 624.601 L 164.695 624.601"/><path d="M 169.695 619.601 L 169.695 624.601"/><path d="M 174.695 619.601 L 169.695 619.601"/><path d="M 174.695 624.601 L 174.695 619.601"/><path d="M 179.695 624.601 L 174.695 624.601"/><path d="M 179.695 619.601 L 179.695 624.601"/><path d="M 184.695 619.601 L 179.695 619.601"/><path d="M 184.695 624.601 L 184.695 619.601"/><path d="M 189.695 624.601 L 184.695 624.601"/><path d="M 189.695 619.601 L 189.695 624.601"/><path d="M 202.195 619.601 L 189.695 619.601"/><path d="M 202.195 597.101 L 202.195 619.601"/><path d="M 6.00783 449.023 L 6.00783 429.023"/><path d="M 11.0078 449.023 L 6.00783 449.023"/><path d="M 11.0078 454.023 L 11.0078 449.023"/><path d="M 6.00783 454.023 L 11.0078 454.023"/><path d="M 6.00783 484.023 L 6.00783 454.023"/><path d="M 11.0078 484.023 L 6.00783 484.023"/><path d="M 11.0078 489.023 L 11.0078 484.023"/><path d="M 6.00783 489.023 L 11.0078 489.023"/><path d="M 6.00783 509.023 L 6.00783 489.023"/><path d="M 36.0078 509.023 L 6.00783 509.023"/><path d="M 36.0078 504.023 L 36.0078 509.023"/><path d="M 41.0078 504.023 L 36.0078 504.023"/><path d="M 41.0078 509.023 L 41.0078 504.023"/><path d="M 91.0078 509.023 L 41.0078 509.023"/><path d="M 91.0078 504.023 L 91.0078 509.023"/><path d="M 96.0078 504.023 L 91.0078 504.023"/><path d="M 96.0078 509.023 L 96.0078 504.023"/><path d="M 126.008 509.023 L 96.0078 509.023"/><path d="M 126.008 489.023 L 126.008 509.023"/><path d="M 121.008 489.023 L 126.008 489.023"/><path d="M 121.008 484.023 L 121.008 489.023"/><path d="M 126.008 484.023 L 121.008 484.023"/><path d="M 126.008 454.023 L 126.008 484.023"/><path d="M 121.008 454.023 L 126.008 454.023"/><path d="M 121.008 449.023 L 121.008 454.023"/><path d="M 126.008 449.023 L 121.008 449.023"/><path d="M 126.008 429.023 L 126.008 449.023"/><path d="M 96.0078 429.023 L 126.008 429.023"/><path d="M 96.0078 434.023 L 96.0078 429.023"/><path d="M 91.0078 434.023 L 96.0078 434.023"/><path d="M 91.0078 429.023 L 91.0078 434.023"/><path d="M 41.0078 429.023 L 91.0078 429.023"/><path d="M 41.0078 434.023 L 41.0078 429.023"/><path d="M 36.0078 434.023 L 41.0078 434.023"/><path d="M 36.0078 429.023 L 36.0078 434.023"/><path d="M 6.00783 429.023 L 36.0078 429.023"/><path d="M 134.212 497.478 L 164.212 497.478"/><path d="M 164.212 497.478 L 164.212 502.478"/><path d="M 164.212 502.478 L 169.212 502.478"/><path d="M 169.212 502.478 L 169.212 497.478"/><path d="M 169.212 497.478 L 219.212 497.478"/><path d="M 219.212 497.478 L 219.212 502.478"/><path d="M 219.212 502.478 L 224.212 502.478"/><path d="M 224.212 502.478 L 224.212 497.478"/><path d="M 224.212 497.478 L 254.212 497.478"/><path d="M 254.212 497.478 L 254.212 482.478"/><path d="M 254.212 482.478 L 249.212 482.478"/><path d="M 249.212 482.478 L 249.212 477.478"/><path d="M 249.212 477.478 L 259.212 477.478"/><path d="M 259.212 477.478 L 259.212 452.478"/><path d="M 259.212 452.478 L 129.212 452.478"/><path d="M 129.212 452.478 L 129.212 477.478"/><path d="M 129.212 477.478 L 139.212 477.478"/><path d="M 139.212 482.478 L 139.212 477.478"/><path d="M 134.212 482.478 L 139.212 482.478"/><path d="M 134.212 482.478 L 134.212 497.478"/><path d="M 466.712 266.815 L 466.712 236.815"/><path d="M 466.712 236.815 L 471.712 236.815"/><path d="M 471.712 236.815 L 471.712 231.815"/><path d="M 471.712 231.815 L 466.712 231.815"/><path d="M 466.712 231.815 L 466.712 181.815"/><path d="M 466.712 181.815 L 471.712 181.815"/><path d="M 471.712 181.815 L 471.712 176.815"/><path d="M 471.712 176.815 L 466.712 176.815"/><path d="M 466.712 176.815 L 466.712 146.815"/><path d="M 466.712 146.815 L 451.712 146.815"/><path d="M 451.712 146.815 L 451.712 151.815"/><path d="M 451.712 151.815 L 446.712 151.815"/><path d="M 446.712 151.815 L 446.712 141.815"/><path d="M 446.712 141.815 L 421.712 141.815"/><path d="M 421.712 141.815 L 421.712 271.815"/><path d="M 421.712 271.815 L 446.712 271.815"/><path d="M 446.712 271.815 L 446.712 261.815"/><path d="M 451.712 261.815 L 446.712 261.815"/><path d="M 451.712 266.815 L 451.712 261.815"/><path d="M 451.712 266.815 L 466.712 266.815"/><path d="M 332.222 501.533 L 317.222 501.533"/><path d="M 317.222 501.533 L 317.222 506.533"/><path d="M 317.222 506.533 L 312.222 506.533"/><path d="M 312.222 506.533 L 312.222 501.533"/><path d="M 312.222 501.533 L 282.222 501.533"/><path d="M 282.222 501.533 L 282.222 506.533"/><path d="M 282.222 506.533 L 277.222 506.533"/><path d="M 277.222 506.533 L 277.222 501.533"/><path d="M 277.222 501.533 L 262.222 501.533"/><path d="M 262.222 501.533 L 262.222 486.533"/><path d="M 257.222 486.533 L 262.222 486.533"/><path d="M 257.222 481.533 L 257.222 486.533"/><path d="M 262.222 481.533 L 257.222 481.533"/><path d="M 262.222 481.533 L 262.222 456.533"/><path d="M 262.222 456.533 L 332.222 456.533"/><path d="M 332.222 456.533 L 332.222 481.533"/><path d="M 332.222 481.533 L 337.222 481.533"/><path d="M 337.222 481.533 L 337.222 486.533"/><path d="M 337.222 486.533 L 332.222 486.533"/><path d="M 332.222 486.533 L 332.222 501.533"/><path d="M 195.297 97.622 L 180.297 97.622"/><path d="M 180.297 97.622 L 180.297 102.622"/><path d="M 180.297 102.622 L 175.297 102.622"/><path d="M 175.297 102.622 L 175.297 97.622"/><path d="M 175.297 97.622 L 145.297 97.622"/><path d="M 145.297 97.622 L 145.297 102.622"/><path d="M 145.297 102.622 L 140.297 102.622"/><path d="M 140.297 102.622 L 140.297 97.622"/><path d="M 140.297 97.622 L 125.297 97.622"/><path d="M 125.297 97.622 L 125.297 82.622"/><path d="M 120.297 82.622 L 125.297 82.622"/><path d="M 120.297 77.622 L 120.297 82.622"/><path d="M 125.297 77.622 L 120.297 77.622"/><path d="M 125.297 77.622 L 125.297 52.622"/><path d="M 125.297 52.622 L 195.297 52.622"/><path d="M 195.297 52.622 L 195.297 77.622"/><path d="M 195.297 77.622 L 200.297 77.622"/><path d="M 200.297 77.622 L 200.297 82.622"/><path d="M 200.297 82.622 L 195.297 82.622"/><path d="M 195.297 82.622 L 195.297 97.622"/><path d="M 188.526 143.837 L 118.526 143.837"/><path d="M 118.526 143.837 L 118.526 103.837"/><path d="M 118.526 103.837 L 151.026 103.837"/><path d="M 151.026 123.837 L 151.026 103.837"/><path d="M 151.026 123.837 L 156.026 123.837"/><path d="M 156.026 103.837 L 156.026 123.837"/><path d="M 156.026 103.837 L 188.526 103.837"/><path d="M 188.526 103.837 L 188.526 143.837"/><path d="M 204.438 511.694 L 314.438 511.694"/><path d="M 204.438 551.694 L 204.438 511.694"/><path d="M 256.938 551.694 L 204.438 551.694"/><path d="M 256.938 531.694 L 256.938 551.694"/><path d="M 261.938 531.694 L 256.938 531.694"/><path d="M 261.938 551.694 L 261.938 531.694"/><path d="M 314.438 551.694 L 261.938 551.694"/><path d="M 314.438 511.694 L 314.438 551.694"/><path d="M 36.6531 316.604 L 44.1531 316.604"/><path d="M 44.1531 316.604 L 44.1531 311.604"/><path d="M 44.1531 311.604 L 49.1531 311.604"/><path d="M 49.1531 311.604 L 49.1531 316.604"/><path d="M 49.1531 316.604 L 54.1531 316.604"/><path d="M 54.1531 316.604 L 54.1531 311.604"/><path d="M 54.1531 311.604 L 59.1531 311.604"/><path d="M 59.1531 311.604 L 59.1531 316.604"/><path d="M 59.1531 316.604 L 64.1531 316.604"/><path d="M 64.1531 316.604 L 64.1531 311.604"/><path d="M 64.1531 311.604 L 69.1531 311.604"/><path d="M 69.1531 311.604 L 69.1531 316.604"/><path d="M 69.1531 316.604 L 74.1531 316.604"/><path d="M 74.1531 316.604 L 74.1531 311.604"/><path d="M 74.1531 311.604 L 79.1531 311.604"/><path d="M 79.1531 311.604 L 79.1531 316.604"/><path d="M 79.1531 316.604 L 86.6531 316.604"/><path d="M 86.6531 316.604 L 86.6531 339.104"/><path d="M 86.6531 361.604 L 86.6531 339.104"/><path d="M 79.1531 361.604 L 86.6531 361.604"/><path d="M 79.1531 366.604 L 79.1531 361.604"/><path d="M 74.1531 366.604 L 79.1531 366.604"/><path d="M 74.1531 361.604 L 74.1531 366.604"/><path d="M 69.1531 361.604 L 74.1531 361.604"/><path d="M 69.1531 366.604 L 69.1531 361.604"/><path d="M 64.1531 366.604 L 69.1531 366.604"/><path d="M 64.1531 361.604 L 64.1531 366.604"/><path d="M 59.1531 361.604 L 64.1531 361.604"/><path d="M 59.1531 366.604 L 59.1531 361.604"/><path d="M 54.1531 366.604 L 59.1531 366.604"/><path d="M 54.1531 361.604 L 54.1531 366.604"/><path d="M 49.1531 361.604 L 54.1531 361.604"/><path d="M 49.1531 366.604 L 49.1531 361.604"/><path d="M 44.1531 366.604 L 49.1531 366.604"/><path d="M 44.1531 361.604 L 44.1531 366.604"/><path d="M 36.6531 361.604 L 44.1531 361.604"/><path d="M 36.6531 361.604 L 36.6531 339.104"/><path d="M 36.6531 316.604 L 36.6531 339.104"/><path d="M 101.43 561.967 L 101.43 539.467"/><path d="M 101.43 516.967 L 101.43 539.467"/><path d="M 101.43 516.967 L 94.9438 516.967"/><path d="M 94.9438 516.967 L 94.9438 511.967"/><path d="M 94.9438 511.967 L 89.9438 511.967"/><path d="M 89.9438 511.967 L 89.9438 516.967"/><path d="M 89.9438 516.967 L 84.9438 516.967"/><path d="M 84.9438 516.967 L 84.9438 511.967"/><path d="M 84.9438 511.967 L 79.9438 511.967"/><path d="M 79.9438 511.967 L 79.9438 516.967"/><path d="M 79.9438 516.967 L 74.9438 516.967"/><path d="M 74.9438 516.967 L 74.9438 511.967"/><path d="M 74.9438 511.967 L 69.9438 511.967"/><path d="M 69.9438 511.967 L 69.9438 516.967"/><path d="M 69.9438 516.967 L 64.9438 516.967"/><path d="M 64.9438 516.967 L 64.9438 511.967"/><path d="M 64.9438 511.967 L 59.9438 511.967"/><path d="M 59.9438 511.967 L 59.9438 516.967"/><path d="M 59.9438 516.967 L 54.9438 516.967"/><path d="M 54.9438 516.967 L 54.9438 511.967"/><path d="M 54.9438 511.967 L 49.9438 511.967"/><path d="M 49.9438 511.967 L 49.9438 516.967"/><path d="M 49.9438 516.967 L 44.9438 516.967"/><path d="M 44.9438 516.967 L 44.9438 511.967"/><path d="M 44.9438 511.967 L 39.9438 511.967"/><path d="M 39.9438 511.967 L 39.9438 516.967"/><path d="M 39.9438 516.967 L 34.9438 516.967"/><path d="M 34.9438 516.967 L 34.9438 511.967"/><path d="M 34.9438 511.967 L 29.9438 511.967"/><path d="M 29.9438 511.967 L 29.9438 516.967"/><path d="M 29.9438 516.967 L 24.9438 516.967"/><path d="M 24.9438 516.967 L 24.9438 511.967"/><path d="M 24.9438 511.967 L 19.9438 511.967"/><path d="M 19.9438 511.967 L 19.9438 516.967"/><path d="M 19.9438 516.967 L 14.9438 516.967"/><path d="M 14.9438 516.967 L 14.9438 511.967"/><path d="M 14.9438 511.967 L 9.94381 511.967"/><path d="M 9.94381 511.967 L 9.94381 516.967"/><path d="M 9.94381 516.967 L 4.4938 516.967"/><path d="M 4.4938 516.967 L 4.4938 539.467"/><path d="M 4.4938 561.967 L 4.4938 539.467"/><path d="M 9.94381 561.967 L 4.4938 561.967"/><path d="M 9.94381 566.967 L 9.94381 561.967"/><path d="M 14.9438 566.967 L 9.94381 566.967"/><path d="M 14.9438 561.967 L 14.9438 566.967"/><path d="M 19.9438 561.967 L 14.9438 561.967"/><path d="M 19.9438 566.967 L 19.9438 561.967"/><path d="M 24.9438 566.967 L 19.9438 566.967"/><path d="M 24.9438 561.967 L 24.9438 566.967"/><path d="M 29.9438 561.967 L 24.9438 561.967"/><path d="M 29.9438 566.967 L 29.9438 561.967"/><path d="M 34.9438 566.967 L 29.9438 566.967"/><path d="M 34.9438 561.967 L 34.9438 566.967"/><path d="M 39.9438 561.967 L 34.9438 561.967"/><path d="M 39.9438 566.967 L 39.9438 561.967"/><path d="M 44.9438 566.967 L 39.9438 566.967"/><path d="M 44.9438 561.967 L 44.9438 566.967"/><path d="M 49.9438 561.967 L 44.9438 561.967"/><path d="M 49.9438 566.967 L 49.9438 561.967"/><path d="M 54.9438 566.967 L 49.9438 566.967"/><path d="M 54.9438 561.967 L 54.9438 566.967"/><path d="M 59.9438 561.967 L 54.9438 561.967"/><path d="M 59.9438 566.967 L 59.9438 561.967"/><path d="M 64.9438 566.967 L 59.9438 566.967"/><path d="M 64.9438 561.967 L 64.9438 566.967"/><path d="M 69.9438 561.967 L 64.9438 561.967"/><path d="M 69.9438 566.967 L 69.9438 561.967"/><path d="M 74.9438 566.967 L 69.9438 566.967"/><path d="M 74.9438 561.967 L 74.9438 566.967"/><path d="M 79.9438 561.967 L 74.9438 561.967"/><path d="M 79.9438 566.967 L 79.9438 561.967"/><path d="M 84.9438 566.967 L 79.9438 566.967"/><path d="M 84.9438 561.967 L 84.9438 566.967"/><path d="M 89.9438 561.967 L 84.9438 561.967"/><path d="M 89.9438 566.967 L 89.9438 561.967"/><path d="M 94.9438 566.967 L 89.9438 566.967"/><path d="M 94.9438 561.967 L 94.9438 566.967"/><path d="M 101.43 561.967 L 94.9438 561.967"/><circle cx="69.4938" cy="539.467" r="5"/><circle cx="24.4938" cy="539.467" r="5"/><path d="M 56.4299 559.467 A 2.5 2.5 0 0 0 56.4299 554.467"/><path d="M 36.4299 559.467 L 56.4299 559.467"/><path d="M 36.4299 554.467 A 2.5 2.5 0 0 0 36.4299 559.467"/><path d="M 36.4299 554.467 L 56.4299 554.467"/><path d="M 289.31 558.317 L 279.31 558.317"/><path d="M 279.31 558.317 L 279.31 553.317"/><path d="M 279.31 553.317 L 274.31 553.317"/><path d="M 274.31 553.317 L 274.31 558.317"/><path d="M 274.31 558.317 L 269.31 558.317"/><path d="M 269.31 558.317 L 269.31 553.317"/><path d="M 269.31 553.317 L 264.31 553.317"/><path d="M 264.31 553.317 L 264.31 558.317"/><path d="M 264.31 558.317 L 259.31 558.317"/><path d="M 259.31 558.317 L 259.31 553.317"/><path d="M 259.31 553.317 L 254.31 553.317"/><path d="M 254.31 553.317 L 254.31 558.317"/><path d="M 254.31 558.317 L 249.31 558.317"/><path d="M 249.31 558.317 L 249.31 553.317"/><path d="M 249.31 553.317 L 244.31 553.317"/><path d="M 244.31 553.317 L 244.31 558.317"/><path d="M 244.31 558.317 L 239.31 558.317"/><path d="M 239.31 558.317 L 239.31 553.317"/><path d="M 239.31 553.317 L 234.31 553.317"/><path d="M 234.31 553.317 L 234.31 558.317"/><path d="M 234.31 558.317 L 229.31 558.317"/><path d="M 229.31 558.317 L 229.31 553.317"/><path d="M 229.31 553.317 L 224.31 553.317"/><path d="M 224.31 553.317 L 224.31 558.317"/><path d="M 224.31 558.317 L 219.31 558.317"/><path d="M 219.31 558.317 L 219.31 553.317"/><path d="M 219.31 553.317 L 214.31 553.317"/><path d="M 214.31 553.317 L 214.31 558.317"/><path d="M 214.31 558.317 L 204.31 558.317"/><path d="M 204.31 558.317 L 204.31 580.817"/><path d="M 204.31 603.317 L 204.31 580.817"/><path d="M 214.31 603.317 L 204.31 603.317"/><path d="M 214.31 608.317 L 214.31 603.317"/><path d="M 219.31 608.317 L 214.31 608.317"/><path d="M 219.31 603.317 L 219.31 608.317"/><path d="M 224.31 603.317 L 219.31 603.317"/><path d="M 224.31 608.317 L 224.31 603.317"/><path d="M 229.31 608.317 L 224.31 608.317"/><path d="M 229.31 603.317 L 229.31 608.317"/><path d="M 234.31 603.317 L 229.31 603.317"/><path d="M 234.31 608.317 L 234.31 603.317"/><path d="M 239.31 608.317 L 234.31 608.317"/><path d="M 239.31 603.317 L 239.31 608.317"/><path d="M 244.31 603.317 L 239.31 603.317"/><path d="M 244.31 608.317 L 244.31 603.317"/><path d="M 249.31 608.317 L 244.31 608.317"/><path d="M 249.31 603.317 L 249.31 608.317"/><path d="M 254.31 603.317 L 249.31 603.317"/><path d="M 254.31 608.317 L 254.31 603.317"/><path d="M 259.31 608.317 L 254.31 608.317"/><path d="M 259.31 603.317 L 259.31 608.317"/><path d="M 264.31 603.317 L 259.31 603.317"/><path d="M 264.31 608.317 L 264.31 603.317"/><path d="M 269.31 608.317 L 264.31 608.317"/><path d="M 269.31 603.317 L 269.31 608.317"/><path d="M 274.31 603.317 L 269.31 603.317"/><path d="M 274.31 608.317 L 274.31 603.317"/><path d="M 279.31 608.317 L 274.31 608.317"/><path d="M 279.31 603.317 L 279.31 608.317"/><path d="M 289.31 603.317 L 279.31 603.317"/><path d="M 289.31 603.317 L 289.31 580.817"/><path d="M 289.31 558.317 L 289.31 580.817"/><path d="M 66.1178 111.884 L 66.1178 106.884"/><path d="M 66.1178 106.884 L 71.1178 106.884"/><path d="M 71.1178 106.884 L 71.1178 111.884"/><path d="M 71.1178 111.884 L 76.1178 111.884"/><path d="M 76.1178 111.884 L 76.1178 106.884"/><path d="M 76.1178 106.884 L 81.1178 106.884"/><path d="M 81.1178 106.884 L 81.1178 111.884"/><path d="M 81.1178 111.884 L 86.1178 111.884"/><path d="M 86.1178 111.884 L 86.1178 106.884"/><path d="M 86.1178 106.884 L 91.1178 106.884"/><path d="M 91.1178 106.884 L 91.1178 111.884"/><path d="M 91.1178 111.884 L 96.1178 111.884"/><path d="M 96.1178 111.884 L 96.1178 106.884"/><path d="M 96.1178 106.884 L 101.118 106.884"/><path d="M 101.118 106.884 L 101.118 111.884"/><path d="M 101.118 111.884 L 116.118 111.884"/><path d="M 116.118 111.884 L 116.118 134.384"/><path d="M 116.118 156.884 L 116.118 134.384"/><path d="M 101.118 156.884 L 116.118 156.884"/><path d="M 101.118 161.884 L 101.118 156.884"/><path d="M 96.1178 161.884 L 101.118 161.884"/><path d="M 96.1178 156.884 L 96.1178 161.884"/><path d="M 91.1178 156.884 L 96.1178 156.884"/><path d="M 91.1178 161.884 L 91.1178 156.884"/><path d="M 86.1178 161.884 L 91.1178 161.884"/><path d="M 86.1178 156.884 L 86.1178 161.884"/><path d="M 81.1178 156.884 L 86.1178 156.884"/><path d="M 81.1178 161.884 L 81.1178 156.884"/><path d="M 76.1178 161.884 L 81.1178 161.884"/><path d="M 76.1178 156.884 L 76.1178 161.884"/><path d="M 71.1178 156.884 L 76.1178 156.884"/><path d="M 71.1178 161.884 L 71.1178 156.884"/><path d="M 66.1178 161.884 L 71.1178 161.884"/><path d="M 66.1178 156.884 L 66.1178 161.884"/><path d="M 66.1178 156.884 L 56.1178 156.884"/><path d="M 56.1178 156.884 L 56.1178 134.384"/><path d="M 56.1178 111.884 L 56.1178 134.384"/><path d="M 66.1178 111.884 L 56.1178 111.884"/><path d="M 69.3595 55.908 L 69.3595 50.908"/><path d="M 69.3595 50.908 L 74.3595 50.908"/><path d="M 74.3595 50.908 L 74.3595 55.908"/><path d="M 74.3595 55.908 L 79.3595 55.908"/><path d="M 79.3595 55.908 L 79.3595 50.908"/><path d="M 79.3595 50.908 L 84.3595 50.908"/><path d="M 84.3595 50.908 L 84.3595 55.908"/><path d="M 84.3595 55.908 L 89.3595 55.908"/><path d="M 89.3595 55.908 L 89.3595 50.908"/><path d="M 89.3595 50.908 L 94.3595 50.908"/><path d="M 94.3595 50.908 L 94.3595 55.908"/><path d="M 94.3595 55.908 L 99.3595 55.908"/><path d="M 99.3595 55.908 L 99.3595 50.908"/><path d="M 99.3595 50.908 L 104.359 50.908"/><path d="M 104.359 50.908 L 104.359 55.908"/><path d="M 104.359 55.908 L 119.359 55.908"/><path d="M 119.359 55.908 L 119.359 78.408"/><path d="M 119.359 100.908 L 119.359 78.408"/><path d="M 104.359 100.908 L 119.359 100.908"/><path d="M 104.359 105.908 L 104.359 100.908"/><path d="M 99.3595 105.908 L 104.359 105.908"/><path d="M 99.3595 100.908 L 99.3595 105.908"/><path d="M 94.3595 100.908 L 99.3595 100.908"/><path d="M 94.3595 105.908 L 94.3595 100.908"/><path d="M 89.3595 105.908 L 94.3595 105.908"/><path d="M 89.3595 100.908 L 89.3595 105.908"/><path d="M 84.3595 100.908 L 89.3595 100.908"/><path d="M 84.3595 105.908 L 84.3595 100.908"/><path d="M 79.3595 105.908 L 84.3595 105.908"/><path d="M 79.3595 100.908 L 79.3595 105.908"/><path d="M 74.3595 100.908 L 79.3595 100.908"/><path d="M 74.3595 105.908 L 74.3595 100.908"/><path d="M 69.3595 105.908 L 74.3595 105.908"/><path d="M 69.3595 100.908 L 69.3595 105.908"/><path d="M 69.3595 100.908 L 59.3595 100.908"/><path d="M 59.3595 100.908 L 59.3595 78.408"/><path d="M 59.3595 55.908 L 59.3595 78.408"/><path d="M 69.3595 55.908 L 59.3595 55.908"/><path d="M 89.3907 573.314 L 79.3907 573.314"/><path d="M 79.3907 573.314 L 79.3907 568.314"/><path d="M 79.3907 568.314 L 74.3907 568.314"/><path d="M 74.3907 568.314 L 74.3907 573.314"/><path d="M 74.3907 573.314 L 69.3907 573.314"/><path d="M 69.3907 573.314 L 69.3907 568.314"/><path d="M 69.3907 568.314 L 64.3907 568.314"/><path d="M 64.3907 568.314 L 64.3907 573.314"/><path d="M 64.3907 573.314 L 59.3907 573.314"/><path d="M 59.3907 573.314 L 59.3907 568.314"/><path d="M 59.3907 568.314 L 54.3907 568.314"/><path d="M 54.3907 568.314 L 54.3907 573.314"/><path d="M 54.3907 573.314 L 49.3907 573.314"/><path d="M 49.3907 573.314 L 49.3907 568.314"/><path d="M 49.3907 568.314 L 44.3907 568.314"/><path d="M 44.3907 568.314 L 44.3907 573.314"/><path d="M 44.3907 573.314 L 39.3907 573.314"/><path d="M 39.3907 573.314 L 39.3907 568.314"/><path d="M 39.3907 568.314 L 34.3907 568.314"/><path d="M 34.3907 568.314 L 34.3907 573.314"/><path d="M 34.3907 573.314 L 29.3907 573.314"/><path d="M 29.3907 573.314 L 29.3907 568.314"/><path d="M 29.3907 568.314 L 24.3907 568.314"/><path d="M 24.3907 568.314 L 24.3907 573.314"/><path d="M 24.3907 573.314 L 19.3907 573.314"/><path d="M 19.3907 573.314 L 19.3907 568.314"/><path d="M 19.3907 568.314 L 14.3907 568.314"/><path d="M 14.3907 568.314 L 14.3907 573.314"/><path d="M 14.3907 573.314 L 4.39071 573.314"/><path d="M 4.39071 573.314 L 4.39071 595.814"/><path d="M 4.39071 618.314 L 4.39071 595.814"/><path d="M 14.3907 618.314 L 4.39071 618.314"/><path d="M 14.3907 623.314 L 14.3907 618.314"/><path d="M 19.3907 623.314 L 14.3907 623.314"/><path d="M 19.3907 618.314 L 19.3907 623.314"/><path d="M 24.3907 618.314 L 19.3907 618.314"/><path d="M 24.3907 623.314 L 24.3907 618.314"/><path d="M 29.3907 623.314 L 24.3907 623.314"/><path d="M 29.3907 618.314 L 29.3907 623.314"/><path d="M 34.3907 618.314 L 29.3907 618.314"/><path d="M 34.3907 623.314 L 34.3907 618.314"/><path d="M 39.3907 623.314 L 34.3907 623.314"/><path d="M 39.3907 618.314 L 39.3907 623.314"/><path d="M 44.3907 618.314 L 39.3907 618.314"/><path d="M 44.3907 623.314 L 44.3907 618.314"/><path d="M 49.3907 623.314 L 44.3907 623.314"/><path d="M 49.3907 618.314 L 49.3907 623.314"/><path d="M 54.3907 618.314 L 49.3907 618.314"/><path d="M 54.3907 623.314 L 54.3907 618.314"/><path d="M 59.3907 623.314 L 54.3907 623.314"/><path d="M 59.3907 618.314 L 59.3907 623.314"/><path d="M 64.3907 618.314 L 59.3907 618.314"/><path d="M 64.3907 623.314 L 64.3907 618.314"/><path d="M 69.3907 623.314 L 64.3907 623.314"/><path d="M 69.3907 618.314 L 69.3907 623.314"/><path d="M 74.3907 618.314 L 69.3907 618.314"/><path d="M 74.3907 623.314 L 74.3907 618.314"/><path d="M 79.3907 623.314 L 74.3907 623.314"/><path d="M 79.3907 618.314 L 79.3907 623.314"/><path d="M 89.3907 618.314 L 79.3907 618.314"/><path d="M 89.3907 618.314 L 89.3907 595.814"/><path d="M 89.3907 573.314 L 89.3907 595.814"/><path d="M 202.164 563.396 L 202.164 540.896"/><path d="M 202.164 518.396 L 202.164 540.896"/><path d="M 202.164 518.396 L 195.678 518.396"/><path d="M 195.678 518.396 L 195.678 513.396"/><path d="M 195.678 513.396 L 190.678 513.396"/><path d="M 190.678 513.396 L 190.678 518.396"/><path d="M 190.678 518.396 L 185.678 518.396"/><path d="M 185.678 518.396 L 185.678 513.396"/><path d="M 185.678 513.396 L 180.678 513.396"/><path d="M 180.678 513.396 L 180.678 518.396"/><path d="M 180.678 518.396 L 175.678 518.396"/><path d="M 175.678 518.396 L 175.678 513.396"/><path d="M 175.678 513.396 L 170.678 513.396"/><path d="M 170.678 513.396 L 170.678 518.396"/><path d="M 170.678 518.396 L 165.678 518.396"/><path d="M 165.678 518.396 L 165.678 513.396"/><path d="M 165.678 513.396 L 160.678 513.396"/><path d="M 160.678 513.396 L 160.678 518.396"/><path d="M 160.678 518.396 L 155.678 518.396"/><path d="M 155.678 518.396 L 155.678 513.396"/><path d="M 155.678 513.396 L 150.678 513.396"/><path d="M 150.678 513.396 L 150.678 518.396"/><path d="M 150.678 518.396 L 145.678 518.396"/><path d="M 145.678 518.396 L 145.678 513.396"/><path d="M 145.678 513.396 L 140.678 513.396"/><path d="M 140.678 513.396 L 140.678 518.396"/><path d="M 140.678 518.396 L 135.678 518.396"/><path d="M 135.678 518.396 L 135.678 513.396"/><path d="M 135.678 513.396 L 130.678 513.396"/><path d="M 130.678 513.396 L 130.678 518.396"/><path d="M 130.678 518.396 L 125.678 518.396"/><path d="M 125.678 518.396 L 125.678 513.396"/><path d="M 125.678 513.396 L 120.678 513.396"/><path d="M 120.678 513.396 L 120.678 518.396"/><path d="M 120.678 518.396 L 115.678 518.396"/><path d="M 115.678 518.396 L 115.678 513.396"/><path d="M 115.678 513.396 L 110.678 513.396"/><path d="M 110.678 513.396 L 110.678 518.396"/><path d="M 110.678 518.396 L 105.228 518.396"/><path d="M 105.228 518.396 L 105.228 540.896"/><path d="M 105.228 563.396 L 105.228 540.896"/><path d="M 110.678 563.396 L 105.228 563.396"/><path d="M 110.678 568.396 L 110.678 563.396"/><path d="M 115.678 568.396 L 110.678 568.396"/><path d="M 115.678 563.396 L 115.678 568.396"/><path d="M 120.678 563.396 L 115.678 563.396"/><path d="M 120.678 568.396 L 120.678 563.396"/><path d="M 125.678 568.396 L 120.678 568.396"/><path d="M 125.678 563.396 L 125.678 568.396"/><path d="M 130.678 563.396 L 125.678 563.396"/><path d="M 130.678 568.396 L 130.678 563.396"/><path d="M 135.678 568.396 L 130.678 568.396"/><path d="M 135.678 563.396 L 135.678 568.396"/><path d="M 140.678 563.396 L 135.678 563.396"/><path d="M 140.678 568.396 L 140.678 563.396"/><path d="M 145.678 568.396 L 140.678 568.396"/><path d="M 145.678 563.396 L 145.678 568.396"/><path d="M 150.678 563.396 L 145.678 563.396"/><path d="M 150.678 568.396 L 150.678 563.396"/><path d="M 155.678 568.396 L 150.678 568.396"/><path d="M 155.678 563.396 L 155.678 568.396"/><path d="M 160.678 563.396 L 155.678 563.396"/><path d="M 160.678 568.396 L 160.678 563.396"/><path d="M 165.678 568.396 L 160.678 568.396"/><path d="M 165.678 563.396 L 165.678 568.396"/><path d="M 170.678 563.396 L 165.678 563.396"/><path d="M 170.678 568.396 L 170.678 563.396"/><path d="M 175.678 568.396 L 170.678 568.396"/><path d="M 175.678 563.396 L 175.678 568.396"/><path d="M 180.678 563.396 L 175.678 563.396"/><path d="M 180.678 568.396 L 180.678 563.396"/><path d="M 185.678 568.396 L 180.678 568.396"/><path d="M 185.678 563.396 L 185.678 568.396"/><path d="M 190.678 563.396 L 185.678 563.396"/><path d="M 190.678 568.396 L 190.678 563.396"/><path d="M 195.678 568.396 L 190.678 568.396"/><path d="M 195.678 563.396 L 195.678 568.396"/><path d="M 202.164 563.396 L 195.678 563.396"/><circle cx="170.228" cy="540.896" r="5"/><circle cx="125.228" cy="540.896" r="5"/><path d="M 157.164 560.896 A 2.5 2.5 0 0 0 157.164 555.896"/><path d="M 137.164 560.896 L 157.164 560.896"/><path d="M 137.164 555.896 A 2.5 2.5 0 0 0 137.164 560.896"/><path d="M 137.164 555.896 L 157.164 555.896"/><path d="M 90.1412 315.562 L 97.6412 315.562"/><path d="M 97.6412 315.562 L 97.6412 310.562"/><path d="M 97.6412 310.562 L 102.641 310.562"/><path d="M 102.641 310.562 L 102.641 315.562"/><path d="M 102.641 315.562 L 107.641 315.562"/><path d="M 107.641 315.562 L 107.641 310.562"/><path d="M 107.641 310.562 L 112.641 310.562"/><path d="M 112.641 310.562 L 112.641 315.562"/><path d="M 112.641 315.562 L 117.641 315.562"/><path d="M 117.641 315.562 L 117.641 310.562"/><path d="M 117.641 310.562 L 122.641 310.562"/><path d="M 122.641 310.562 L 122.641 315.562"/><path d="M 122.641 315.562 L 127.641 315.562"/><path d="M 127.641 315.562 L 127.641 310.562"/><path d="M 127.641 310.562 L 132.641 310.562"/><path d="M 132.641 310.562 L 132.641 315.562"/><path d="M 132.641 315.562 L 140.141 315.562"/><path d="M 140.141 315.562 L 140.141 338.061"/><path d="M 140.141 360.561 L 140.141 338.061"/><path d="M 132.641 360.561 L 140.141 360.561"/><path d="M 132.641 365.561 L 132.641 360.561"/><path d="M 127.641 365.561 L 132.641 365.561"/><path d="M 127.641 360.561 L 127.641 365.561"/><path d="M 122.641 360.561 L 127.641 360.561"/><path d="M 122.641 365.561 L 122.641 360.561"/><path d="M 117.641 365.561 L 122.641 365.561"/><path d="M 117.641 360.561 L 117.641 365.561"/><path d="M 112.641 360.561 L 117.641 360.561"/><path d="M 112.641 365.561 L 112.641 360.561"/><path d="M 107.641 365.561 L 112.641 365.561"/><path d="M 107.641 360.561 L 107.641 365.561"/><path d="M 102.641 360.561 L 107.641 360.561"/><path d="M 102.641 365.561 L 102.641 360.561"/><path d="M 97.6412 365.561 L 102.641 365.561"/><path d="M 97.6412 360.561 L 97.6412 365.561"/><path d="M 90.1412 360.561 L 97.6412 360.561"/><path d="M 90.1412 360.561 L 90.1412 338.061"/><path d="M 90.1412 315.562 L 90.1412 338.061"/><path d="M 105.679 176.576 L 98.1792 176.576"/><path d="M 98.1792 181.662 L 98.1792 176.576"/><path d="M 93.1792 181.662 L 98.1792 181.662"/><path d="M 93.1792 176.576 L 93.1792 181.662"/><path d="M 93.1792 176.576 L 90.6792 176.576"/><path d="M 88.1792 176.576 L 90.6792 176.576"/><path d="M 88.1792 176.576 L 88.1792 181.662"/><path d="M 88.1792 181.662 L 83.1792 181.662"/><path d="M 83.1792 181.662 L 83.1792 176.576"/><path d="M 75.6792 176.576 L 83.1792 176.576"/><path d="M 75.6792 176.576 L 67.0189 181.576"/><path d="M 67.0189 181.576 L 69.5189 185.906"/><path d="M 69.5189 185.906 L 65.1888 188.406"/><path d="M 65.1888 188.406 L 62.6888 184.076"/><path d="M 62.6888 184.076 L 58.3587 186.576"/><path d="M 58.3587 186.576 L 60.8587 190.906"/><path d="M 60.8587 190.906 L 56.5286 193.406"/><path d="M 56.5286 193.406 L 54.0286 189.076"/><path d="M 54.0286 189.076 L 49.6984 191.576"/><path d="M 49.6984 191.576 L 52.1984 195.906"/><path d="M 52.1984 195.906 L 47.8683 198.406"/><path d="M 47.8683 198.406 L 45.3683 194.076"/><path d="M 45.3683 194.076 L 41.0382 196.576"/><path d="M 41.0382 196.576 L 43.5382 200.906"/><path d="M 43.5382 200.906 L 39.208 203.406"/><path d="M 39.208 203.406 L 36.708 199.076"/><path d="M 36.708 199.076 L 23.7177 206.576"/><path d="M 23.7177 206.576 L 21.5955 216.349"/><path d="M 21.5955 216.349 L 26.4816 217.41"/><path d="M 26.4816 217.41 L 25.4205 222.296"/><path d="M 25.4205 222.296 L 20.5344 221.235"/><path d="M 20.5344 221.235 L 19.4733 226.121"/><path d="M 19.4733 226.121 L 24.3594 227.182"/><path d="M 24.3594 227.182 L 23.2983 232.068"/><path d="M 23.2983 232.068 L 18.4122 231.007"/><path d="M 18.4122 231.007 L 17.3511 235.893"/><path d="M 17.3511 235.893 L 22.2373 236.954"/><path d="M 22.2373 236.954 L 21.1762 241.84"/><path d="M 21.1762 241.84 L 16.2901 240.779"/><path d="M 16.2901 240.779 L 15.229 245.665"/><path d="M 15.229 245.665 L 20.1151 246.726"/><path d="M 20.1151 246.726 L 19.054 251.612"/><path d="M 19.054 251.612 L 14.1679 250.551"/><path d="M 14.1679 250.551 L 13.1068 255.438"/><path d="M 13.1068 255.438 L 17.9929 256.499"/><path d="M 17.9929 256.499 L 16.9318 261.385"/><path d="M 16.9318 261.385 L 12.0457 260.324"/><path d="M 12.0457 260.324 L 10.9846 265.21"/><path d="M 10.9846 265.21 L 15.8707 266.271"/><path d="M 15.8707 266.271 L 14.8097 271.157"/><path d="M 14.8097 271.157 L 9.92354 270.096"/><path d="M 9.92354 270.096 L 8.86245 274.982"/><path d="M 8.86245 274.982 L 13.7486 276.043"/><path d="M 13.7486 276.043 L 12.6875 280.929"/><path d="M 12.6875 280.929 L 7.80137 279.868"/><path d="M 7.80137 279.868 L 5.67919 289.64"/><path d="M 5.67919 289.64 L 5.67919 295.09"/><path d="M 5.67919 295.09 L 10.6792 295.09"/><path d="M 10.6792 295.09 L 10.6792 300.09"/><path d="M 10.6792 300.09 L 5.67919 300.09"/><path d="M 5.67919 300.09 L 5.67919 305.09"/><path d="M 5.67919 305.09 L 10.6792 305.09"/><path d="M 10.6792 305.09 L 10.6792 310.09"/><path d="M 10.6792 310.09 L 5.67919 310.09"/><path d="M 5.67919 310.09 L 5.67919 315.09"/><path d="M 5.67919 315.09 L 10.6792 315.09"/><path d="M 10.6792 315.09 L 10.6792 320.09"/><path d="M 10.6792 320.09 L 5.67919 320.09"/><path d="M 5.67919 320.09 L 5.67919 325.09"/><path d="M 5.67919 325.09 L 10.6792 325.09"/><path d="M 10.6792 325.09 L 10.6792 330.09"/><path d="M 10.6792 330.09 L 5.67919 330.09"/><path d="M 5.67919 330.09 L 5.67919 335.09"/><path d="M 5.67919 335.09 L 10.6792 335.09"/><path d="M 10.6792 335.09 L 10.6792 340.09"/><path d="M 10.6792 340.09 L 5.67919 340.09"/><path d="M 5.67919 340.09 L 5.67919 345.09"/><path d="M 5.67919 345.09 L 10.6792 345.09"/><path d="M 10.6792 345.09 L 10.6792 350.09"/><path d="M 10.6792 350.09 L 5.67919 350.09"/><path d="M 5.67919 350.09 L 5.67919 355.09"/><path d="M 5.67919 355.09 L 10.6792 355.09"/><path d="M 10.6792 355.09 L 10.6792 360.09"/><path d="M 10.6792 360.09 L 5.67919 360.09"/><path d="M 5.67919 360.09 L 5.67919 365.09"/><path d="M 5.67919 365.09 L 10.6792 365.09"/><path d="M 10.6792 365.09 L 10.6792 370.09"/><path d="M 10.6792 370.09 L 5.67919 370.09"/><path d="M 5.67919 370.09 L 5.67919 375.09"/><path d="M 5.67919 375.09 L 10.6792 375.09"/><path d="M 10.6792 375.09 L 10.6792 380.09"/><path d="M 10.6792 380.09 L 5.67919 380.09"/><path d="M 5.67919 380.09 L 5.67919 386.576"/><path d="M 5.67919 386.576 L 10.1792 392.576"/><path d="M 10.1792 392.576 L 14.1792 389.576"/><path d="M 14.1792 389.576 L 17.1792 393.576"/><path d="M 17.1792 393.576 L 13.1792 396.576"/><path d="M 13.1792 396.576 L 16.1792 400.576"/><path d="M 16.1792 400.576 L 20.1792 397.576"/><path d="M 20.1792 397.576 L 23.1792 401.576"/><path d="M 23.1792 401.576 L 19.1792 404.576"/><path d="M 19.1792 404.576 L 22.1792 408.576"/><path d="M 22.1792 408.576 L 26.1792 405.576"/><path d="M 26.1792 405.576 L 29.1792 409.576"/><path d="M 29.1792 409.576 L 25.1792 412.576"/><path d="M 25.1792 412.576 L 28.1792 416.576"/><path d="M 28.1792 416.576 L 32.1792 413.576"/><path d="M 32.1792 413.576 L 35.1792 417.576"/><path d="M 35.1792 417.576 L 31.1792 420.576"/><path d="M 31.1792 420.576 L 35.6792 426.576"/><path d="M 48.1792 426.576 L 35.6792 426.576"/><path d="M 48.1792 421.576 L 48.1792 426.576"/><path d="M 53.1792 421.576 L 48.1792 421.576"/><path d="M 53.1792 426.576 L 53.1792 421.576"/><path d="M 58.1792 426.576 L 53.1792 426.576"/><path d="M 58.1792 421.576 L 58.1792 426.576"/><path d="M 63.1792 421.576 L 58.1792 421.576"/><path d="M 63.1792 426.576 L 63.1792 421.576"/><path d="M 68.1792 426.576 L 63.1792 426.576"/><path d="M 68.1792 421.576 L 68.1792 426.576"/><path d="M 73.1792 421.576 L 68.1792 421.576"/><path d="M 73.1792 426.576 L 73.1792 421.576"/><path d="M 78.1792 426.576 L 73.1792 426.576"/><path d="M 78.1792 421.576 L 78.1792 426.576"/><path d="M 83.1792 421.576 L 78.1792 421.576"/><path d="M 83.1792 426.576 L 83.1792 421.576"/><path d="M 88.1792 426.576 L 83.1792 426.576"/><path d="M 88.1792 421.576 L 88.1792 426.576"/><path d="M 90.6792 421.576 L 88.1792 421.576"/><path d="M 90.6792 421.576 L 93.1792 421.576"/><path d="M 93.1792 421.576 L 93.1792 426.576"/><path d="M 93.1792 426.576 L 98.1792 426.576"/><path d="M 98.1792 426.576 L 98.1792 421.576"/><path d="M 98.1792 421.576 L 103.179 421.576"/><path d="M 103.179 421.576 L 103.179 426.576"/><path d="M 103.179 426.576 L 108.179 426.576"/><path d="M 108.179 426.576 L 108.179 421.576"/><path d="M 108.179 421.576 L 113.179 421.576"/><path d="M 113.179 421.576 L 113.179 426.576"/><path d="M 113.179 426.576 L 118.179 426.576"/><path d="M 118.179 426.576 L 118.179 421.576"/><path d="M 118.179 421.576 L 123.179 421.576"/><path d="M 123.179 421.576 L 123.179 426.576"/><path d="M 123.179 426.576 L 128.179 426.576"/><path d="M 128.179 426.576 L 128.179 421.576"/><path d="M 128.179 421.576 L 133.179 421.576"/><path d="M 133.179 421.576 L 133.179 426.576"/><path d="M 133.179 426.576 L 145.679 426.576"/><path d="M 150.179 420.576 L 145.679 426.576"/><path d="M 146.179 417.576 L 150.179 420.576"/><path d="M 149.179 413.576 L 146.179 417.576"/><path d="M 153.179 416.576 L 149.179 413.576"/><path d="M 156.179 412.576 L 153.179 416.576"/><path d="M 152.179 409.576 L 156.179 412.576"/><path d="M 155.179 405.576 L 152.179 409.576"/><path d="M 159.179 408.576 L 155.179 405.576"/><path d="M 162.179 404.576 L 159.179 408.576"/><path d="M 158.179 401.576 L 162.179 404.576"/><path d="M 161.179 397.576 L 158.179 401.576"/><path d="M 165.179 400.576 L 161.179 397.576"/><path d="M 168.179 396.576 L 165.179 400.576"/><path d="M 164.179 393.576 L 168.179 396.576"/><path d="M 167.179 389.576 L 164.179 393.576"/><path d="M 171.179 392.576 L 167.179 389.576"/><path d="M 175.679 386.576 L 171.179 392.576"/><path d="M 175.679 380.09 L 175.679 386.576"/><path d="M 170.679 380.09 L 175.679 380.09"/><path d="M 170.679 375.09 L 170.679 380.09"/><path d="M 175.679 375.09 L 170.679 375.09"/><path d="M 175.679 370.09 L 175.679 375.09"/><path d="M 170.679 370.09 L 175.679 370.09"/><path d="M 170.679 365.09 L 170.679 370.09"/><path d="M 175.679 365.09 L 170.679 365.09"/><path d="M 175.679 360.09 L 175.679 365.09"/><path d="M 170.679 360.09 L 175.679 360.09"/><path d="M 170.679 355.09 L 170.679 360.09"/><path d="M 175.679 355.09 L 170.679 355.09"/><path d="M 175.679 350.09 L 175.679 355.09"/><path d="M 170.679 350.09 L 175.679 350.09"/><path d="M 170.679 345.09 L 170.679 350.09"/><path d="M 175.679 345.09 L 170.679 345.09"/><path d="M 175.679 340.09 L 175.679 345.09"/><path d="M 170.679 340.09 L 175.679 340.09"/><path d="M 170.679 335.09 L 170.679 340.09"/><path d="M 175.679 335.09 L 170.679 335.09"/><path d="M 175.679 330.09 L 175.679 335.09"/><path d="M 170.679 330.09 L 175.679 330.09"/><path d="M 170.679 325.09 L 170.679 330.09"/><path d="M 175.679 325.09 L 170.679 325.09"/><path d="M 175.679 320.09 L 175.679 325.09"/><path d="M 170.679 320.09 L 175.679 320.09"/><path d="M 170.679 315.09 L 170.679 320.09"/><path d="M 175.679 315.09 L 170.679 315.09"/><path d="M 175.679 310.09 L 175.679 315.09"/><path d="M 170.679 310.09 L 175.679 310.09"/><path d="M 170.679 305.09 L 170.679 310.09"/><path d="M 175.679 305.09 L 170.679 305.09"/><path d="M 175.679 300.09 L 175.679 305.09"/><path d="M 170.679 300.09 L 175.679 300.09"/><path d="M 170.679 295.09 L 170.679 300.09"/><path d="M 175.679 295.09 L 170.679 295.09"/><path d="M 175.679 289.64 L 175.679 295.09"/><path d="M 173.557 279.868 L 175.679 289.64"/><path d="M 168.671 280.929 L 173.557 279.868"/><path d="M 167.61 276.043 L 168.671 280.929"/><path d="M 172.496 274.982 L 167.61 276.043"/><path d="M 171.435 270.096 L 172.496 274.982"/><path d="M 166.549 271.157 L 171.435 270.096"/><path d="M 165.488 266.271 L 166.549 271.157"/><path d="M 170.374 265.21 L 165.488 266.271"/><path d="M 169.313 260.324 L 170.374 265.21"/><path d="M 164.427 261.385 L 169.313 260.324"/><path d="M 163.365 256.499 L 164.427 261.385"/><path d="M 168.252 255.438 L 163.365 256.499"/><path d="M 167.19 250.551 L 168.252 255.438"/><path d="M 162.304 251.612 L 167.19 250.551"/><path d="M 161.243 246.726 L 162.304 251.612"/><path d="M 166.129 245.665 L 161.243 246.726"/><path d="M 165.068 240.779 L 166.129 245.665"/><path d="M 160.182 241.84 L 165.068 240.779"/><path d="M 159.121 236.954 L 160.182 241.84"/><path d="M 164.007 235.893 L 159.121 236.954"/><path d="M 162.946 231.007 L 164.007 235.893"/><path d="M 158.06 232.068 L 162.946 231.007"/><path d="M 156.999 227.182 L 158.06 232.068"/><path d="M 161.885 226.121 L 156.999 227.182"/><path d="M 160.824 221.235 L 161.885 226.121"/><path d="M 155.938 222.296 L 160.824 221.235"/><path d="M 154.877 217.41 L 155.938 222.296"/><path d="M 159.763 216.349 L 154.877 217.41"/><path d="M 157.641 206.576 L 159.763 216.349"/><path d="M 144.65 199.076 L 157.641 206.576"/><path d="M 142.15 203.406 L 144.65 199.076"/><path d="M 137.82 200.906 L 142.15 203.406"/><path d="M 140.32 196.576 L 137.82 200.906"/><path d="M 135.99 194.076 L 140.32 196.576"/><path d="M 133.49 198.406 L 135.99 194.076"/><path d="M 129.16 195.906 L 133.49 198.406"/><path d="M 131.66 191.576 L 129.16 195.906"/><path d="M 127.33 189.076 L 131.66 191.576"/><path d="M 124.83 193.406 L 127.33 189.076"/><path d="M 120.5 190.906 L 124.83 193.406"/><path d="M 123 186.576 L 120.5 190.906"/><path d="M 118.67 184.076 L 123 186.576"/><path d="M 116.17 188.406 L 118.67 184.076"/><path d="M 111.839 185.906 L 116.17 188.406"/><path d="M 114.339 181.576 L 111.839 185.906"/><path d="M 105.679 176.576 L 114.339 181.576"/><path d="M 30.6792 296.576 L 30.6792 376.576"/><path d="M 30.6792 296.576 L 150.679 296.576"/><path d="M 150.679 376.576 L 30.6792 376.576"/><path d="M 150.679 376.576 L 150.679 296.576"/><circle cx="90.6792" cy="211.576" r="5"/><path d="M 85.6792 244.576 A 2 2 0 0 0 87.6792 246.576"/><path d="M 85.6792 243.576 L 85.6792 244.576"/><path d="M 87.6792 241.576 A 2 2 0 0 0 85.6792 243.576"/><path d="M 93.6792 246.576 L 87.6792 246.576"/><path d="M 93.6792 246.576 A 2 2 0 0 0 95.6792 244.576"/><path d="M 95.6792 243.576 A 2 2 0 0 0 93.6792 241.576"/><path d="M 95.6792 244.576 L 95.6792 243.576"/><path d="M 87.6792 241.576 L 93.6792 241.576"/><path d="M 280.441 194.33 L 272.941 194.33"/><path d="M 272.941 199.416 L 272.941 194.33"/><path d="M 267.941 199.416 L 272.941 199.416"/><path d="M 267.941 194.33 L 267.941 199.416"/><path d="M 267.941 194.33 L 265.441 194.33"/><path d="M 262.941 194.33 L 265.441 194.33"/><path d="M 262.941 194.33 L 262.941 199.416"/><path d="M 262.941 199.416 L 257.941 199.416"/><path d="M 257.941 199.416 L 257.941 194.33"/><path d="M 250.441 194.33 L 257.941 194.33"/><path d="M 250.441 194.33 L 241.781 199.33"/><path d="M 241.781 199.33 L 244.281 203.66"/><path d="M 244.281 203.66 L 239.951 206.16"/><path d="M 239.951 206.16 L 237.451 201.83"/><path d="M 237.451 201.83 L 233.12 204.33"/><path d="M 233.12 204.33 L 235.62 208.66"/><path d="M 235.62 208.66 L 231.29 211.16"/><path d="M 231.29 211.16 L 228.79 206.83"/><path d="M 228.79 206.83 L 224.46 209.33"/><path d="M 224.46 209.33 L 226.96 213.66"/><path d="M 226.96 213.66 L 222.63 216.16"/><path d="M 222.63 216.16 L 220.13 211.83"/><path d="M 220.13 211.83 L 215.8 214.33"/><path d="M 215.8 214.33 L 218.3 218.66"/><path d="M 218.3 218.66 L 213.97 221.16"/><path d="M 213.97 221.16 L 211.47 216.83"/><path d="M 211.47 216.83 L 198.479 224.33"/><path d="M 198.479 224.33 L 196.357 234.102"/><path d="M 196.357 234.102 L 201.243 235.163"/><path d="M 201.243 235.163 L 200.182 240.049"/><path d="M 200.182 240.049 L 195.296 238.988"/><path d="M 195.296 238.988 L 194.235 243.874"/><path d="M 194.235 243.874 L 199.121 244.935"/><path d="M 199.121 244.935 L 198.06 249.821"/><path d="M 198.06 249.821 L 193.174 248.76"/><path d="M 193.174 248.76 L 192.113 253.646"/><path d="M 192.113 253.646 L 196.999 254.708"/><path d="M 196.999 254.708 L 195.938 259.594"/><path d="M 195.938 259.594 L 191.052 258.533"/><path d="M 191.052 258.533 L 189.991 263.419"/><path d="M 189.991 263.419 L 194.877 264.48"/><path d="M 194.877 264.48 L 193.816 269.366"/><path d="M 193.816 269.366 L 188.93 268.305"/><path d="M 188.93 268.305 L 187.869 273.191"/><path d="M 187.869 273.191 L 192.755 274.252"/><path d="M 192.755 274.252 L 191.694 279.138"/><path d="M 191.694 279.138 L 186.807 278.077"/><path d="M 186.807 278.077 L 185.746 282.963"/><path d="M 185.746 282.963 L 190.633 284.024"/><path d="M 190.633 284.024 L 189.571 288.91"/><path d="M 189.571 288.91 L 184.685 287.849"/><path d="M 184.685 287.849 L 183.624 292.735"/><path d="M 183.624 292.735 L 188.51 293.796"/><path d="M 188.51 293.796 L 187.449 298.683"/><path d="M 187.449 298.683 L 182.563 297.621"/><path d="M 182.563 297.621 L 180.441 307.394"/><path d="M 180.441 307.394 L 180.441 312.844"/><path d="M 180.441 312.844 L 185.441 312.844"/><path d="M 185.441 312.844 L 185.441 317.844"/><path d="M 185.441 317.844 L 180.441 317.844"/><path d="M 180.441 317.844 L 180.441 322.844"/><path d="M 180.441 322.844 L 185.441 322.844"/><path d="M 185.441 322.844 L 185.441 327.844"/><path d="M 185.441 327.844 L 180.441 327.844"/><path d="M 180.441 327.844 L 180.441 332.844"/><path d="M 180.441 332.844 L 185.441 332.844"/><path d="M 185.441 332.844 L 185.441 337.844"/><path d="M 185.441 337.844 L 180.441 337.844"/><path d="M 180.441 337.844 L 180.441 342.844"/><path d="M 180.441 342.844 L 185.441 342.844"/><path d="M 185.441 342.844 L 185.441 347.844"/><path d="M 185.441 347.844 L 180.441 347.844"/><path d="M 180.441 347.844 L 180.441 352.844"/><path d="M 180.441 352.844 L 185.441 352.844"/><path d="M 185.441 352.844 L 185.441 357.844"/><path d="M 185.441 357.844 L 180.441 357.844"/><path d="M 180.441 357.844 L 180.441 362.844"/><path d="M 180.441 362.844 L 185.441 362.844"/><path d="M 185.441 362.844 L 185.441 367.844"/><path d="M 185.441 367.844 L 180.441 367.844"/><path d="M 180.441 367.844 L 180.441 372.844"/><path d="M 180.441 372.844 L 185.441 372.844"/><path d="M 185.441 372.844 L 185.441 377.844"/><path d="M 185.441 377.844 L 180.441 377.844"/><path d="M 180.441 377.844 L 180.441 382.844"/><path d="M 180.441 382.844 L 185.441 382.844"/><path d="M 185.441 382.844 L 185.441 387.844"/><path d="M 185.441 387.844 L 180.441 387.844"/><path d="M 180.441 387.844 L 180.441 392.844"/><path d="M 180.441 392.844 L 185.441 392.844"/><path d="M 185.441 392.844 L 185.441 397.844"/><path d="M 185.441 397.844 L 180.441 397.844"/><path d="M 180.441 397.844 L 180.441 404.33"/><path d="M 180.441 404.33 L 184.941 410.33"/><path d="M 184.941 410.33 L 188.941 407.33"/><path d="M 188.941 407.33 L 191.941 411.33"/><path d="M 191.941 411.33 L 187.941 414.33"/><path d="M 187.941 414.33 L 190.941 418.33"/><path d="M 190.941 418.33 L 194.941 415.33"/><path d="M 194.941 415.33 L 197.941 419.33"/><path d="M 197.941 419.33 L 193.941 422.33"/><path d="M 193.941 422.33 L 196.941 426.33"/><path d="M 196.941 426.33 L 200.941 423.33"/><path d="M 200.941 423.33 L 203.941 427.33"/><path d="M 203.941 427.33 L 199.941 430.33"/><path d="M 199.941 430.33 L 202.941 434.33"/><path d="M 202.941 434.33 L 206.941 431.33"/><path d="M 206.941 431.33 L 209.941 435.33"/><path d="M 209.941 435.33 L 205.941 438.33"/><path d="M 205.941 438.33 L 210.441 444.33"/><path d="M 222.941 444.33 L 210.441 444.33"/><path d="M 222.941 439.33 L 222.941 444.33"/><path d="M 227.941 439.33 L 222.941 439.33"/><path d="M 227.941 444.33 L 227.941 439.33"/><path d="M 232.941 444.33 L 227.941 444.33"/><path d="M 232.941 439.33 L 232.941 444.33"/><path d="M 237.941 439.33 L 232.941 439.33"/><path d="M 237.941 444.33 L 237.941 439.33"/><path d="M 242.941 444.33 L 237.941 444.33"/><path d="M 242.941 439.33 L 242.941 444.33"/><path d="M 247.941 439.33 L 242.941 439.33"/><path d="M 247.941 444.33 L 247.941 439.33"/><path d="M 252.941 444.33 L 247.941 444.33"/><path d="M 252.941 439.33 L 252.941 444.33"/><path d="M 257.941 439.33 L 252.941 439.33"/><path d="M 257.941 444.33 L 257.941 439.33"/><path d="M 262.941 444.33 L 257.941 444.33"/><path d="M 262.941 439.33 L 262.941 444.33"/><path d="M 265.441 439.33 L 262.941 439.33"/><path d="M 265.441 439.33 L 267.941 439.33"/><path d="M 267.941 439.33 L 267.941 444.33"/><path d="M 267.941 444.33 L 272.941 444.33"/><path d="M 272.941 444.33 L 272.941 439.33"/><path d="M 272.941 439.33 L 277.941 439.33"/><path d="M 277.941 439.33 L 277.941 444.33"/><path d="M 277.941 444.33 L 282.941 444.33"/><path d="M 282.941 444.33 L 282.941 439.33"/><path d="M 282.941 439.33 L 287.941 439.33"/><path d="M 287.941 439.33 L 287.941 444.33"/><path d="M 287.941 444.33 L 292.941 444.33"/><path d="M 292.941 444.33 L 292.941 439.33"/><path d="M 292.941 439.33 L 297.941 439.33"/><path d="M 297.941 439.33 L 297.941 444.33"/><path d="M 297.941 444.33 L 302.941 444.33"/><path d="M 302.941 444.33 L 302.941 439.33"/><path d="M 302.941 439.33 L 307.941 439.33"/><path d="M 307.941 439.33 L 307.941 444.33"/><path d="M 307.941 444.33 L 320.441 444.33"/><path d="M 324.941 438.33 L 320.441 444.33"/><path d="M 320.941 435.33 L 324.941 438.33"/><path d="M 323.941 431.33 L 320.941 435.33"/><path d="M 327.941 434.33 L 323.941 431.33"/><path d="M 330.941 430.33 L 327.941 434.33"/><path d="M 326.941 427.33 L 330.941 430.33"/><path d="M 329.941 423.33 L 326.941 427.33"/><path d="M 333.941 426.33 L 329.941 423.33"/><path d="M 336.941 422.33 L 333.941 426.33"/><path d="M 332.941 419.33 L 336.941 422.33"/><path d="M 335.941 415.33 L 332.941 419.33"/><path d="M 339.941 418.33 L 335.941 415.33"/><path d="M 342.941 414.33 L 339.941 418.33"/><path d="M 338.941 411.33 L 342.941 414.33"/><path d="M 341.941 407.33 L 338.941 411.33"/><path d="M 345.941 410.33 L 341.941 407.33"/><path d="M 350.441 404.33 L 345.941 410.33"/><path d="M 350.441 397.844 L 350.441 404.33"/><path d="M 345.441 397.844 L 350.441 397.844"/><path d="M 345.441 392.844 L 345.441 397.844"/><path d="M 350.441 392.844 L 345.441 392.844"/><path d="M 350.441 387.844 L 350.441 392.844"/><path d="M 345.441 387.844 L 350.441 387.844"/><path d="M 345.441 382.844 L 345.441 387.844"/><path d="M 350.441 382.844 L 345.441 382.844"/><path d="M 350.441 377.844 L 350.441 382.844"/><path d="M 345.441 377.844 L 350.441 377.844"/><path d="M 345.441 372.844 L 345.441 377.844"/><path d="M 350.441 372.844 L 345.441 372.844"/><path d="M 350.441 367.844 L 350.441 372.844"/><path d="M 345.441 367.844 L 350.441 367.844"/><path d="M 345.441 362.844 L 345.441 367.844"/><path d="M 350.441 362.844 L 345.441 362.844"/><path d="M 350.441 357.844 L 350.441 362.844"/><path d="M 345.441 357.844 L 350.441 357.844"/><path d="M 345.441 352.844 L 345.441 357.844"/><path d="M 350.441 352.844 L 345.441 352.844"/><path d="M 350.441 347.844 L 350.441 352.844"/><path d="M 345.441 347.844 L 350.441 347.844"/><path d="M 345.441 342.844 L 345.441 347.844"/><path d="M 350.441 342.844 L 345.441 342.844"/><path d="M 350.441 337.844 L 350.441 342.844"/><path d="M 345.441 337.844 L 350.441 337.844"/><path d="M 345.441 332.844 L 345.441 337.844"/><path d="M 350.441 332.844 L 345.441 332.844"/><path d="M 350.441 327.844 L 350.441 332.844"/><path d="M 345.441 327.844 L 350.441 327.844"/><path d="M 345.441 322.844 L 345.441 327.844"/><path d="M 350.441 322.844 L 345.441 322.844"/><path d="M 350.441 317.844 L 350.441 322.844"/><path d="M 345.441 317.844 L 350.441 317.844"/><path d="M 345.441 312.844 L 345.441 317.844"/><path d="M 350.441 312.844 L 345.441 312.844"/><path d="M 350.441 307.394 L 350.441 312.844"/><path d="M 348.319 297.621 L 350.441 307.394"/><path d="M 343.433 298.683 L 348.319 297.621"/><path d="M 342.372 293.796 L 343.433 298.683"/><path d="M 347.258 292.735 L 342.372 293.796"/><path d="M 346.197 287.849 L 347.258 292.735"/><path d="M 341.311 288.91 L 346.197 287.849"/><path d="M 340.249 284.024 L 341.311 288.91"/><path d="M 345.136 282.963 L 340.249 284.024"/><path d="M 344.074 278.077 L 345.136 282.963"/><path d="M 339.188 279.138 L 344.074 278.077"/><path d="M 338.127 274.252 L 339.188 279.138"/><path d="M 343.013 273.191 L 338.127 274.252"/><path d="M 341.952 268.305 L 343.013 273.191"/><path d="M 337.066 269.366 L 341.952 268.305"/><path d="M 336.005 264.48 L 337.066 269.366"/><path d="M 340.891 263.419 L 336.005 264.48"/><path d="M 339.83 258.533 L 340.891 263.419"/><path d="M 334.944 259.594 L 339.83 258.533"/><path d="M 333.883 254.708 L 334.944 259.594"/><path d="M 338.769 253.646 L 333.883 254.708"/><path d="M 337.708 248.76 L 338.769 253.646"/><path d="M 332.822 249.821 L 337.708 248.76"/><path d="M 331.761 244.935 L 332.822 249.821"/><path d="M 336.647 243.874 L 331.761 244.935"/><path d="M 335.586 238.988 L 336.647 243.874"/><path d="M 330.7 240.049 L 335.586 238.988"/><path d="M 329.639 235.163 L 330.7 240.049"/><path d="M 334.525 234.102 L 329.639 235.163"/><path d="M 332.402 224.33 L 334.525 234.102"/><path d="M 319.412 216.83 L 332.402 224.33"/><path d="M 316.912 221.16 L 319.412 216.83"/><path d="M 312.582 218.66 L 316.912 221.16"/><path d="M 315.082 214.33 L 312.582 218.66"/><path d="M 310.752 211.83 L 315.082 214.33"/><path d="M 308.252 216.16 L 310.752 211.83"/><path d="M 303.922 213.66 L 308.252 216.16"/><path d="M 306.422 209.33 L 303.922 213.66"/><path d="M 302.092 206.83 L 306.422 209.33"/><path d="M 299.592 211.16 L 302.092 206.83"/><path d="M 295.261 208.66 L 299.592 211.16"/><path d="M 297.761 204.33 L 295.261 208.66"/><path d="M 293.431 201.83 L 297.761 204.33"/><path d="M 290.931 206.16 L 293.431 201.83"/><path d="M 286.601 203.66 L 290.931 206.16"/><path d="M 289.101 199.33 L 286.601 203.66"/><path d="M 280.441 194.33 L 289.101 199.33"/><path d="M 250.441 214.33 L 280.441 214.33"/><path d="M 250.441 214.33 L 250.441 204.33"/><path d="M 280.441 204.33 L 250.441 204.33"/><path d="M 280.441 204.33 L 280.441 214.33"/><circle cx="459.159" cy="89.8905" r="2.5"/><path d="M 490.012 209.281 L 579.159 209.281"/><path d="M 579.159 209.281 L 579.159 9.28101"/><path d="M 579.159 9.28101 L 494.646 9.28101"/><path d="M 359.159 71.0603 L 494.646 9.28101"/><path d="M 359.159 71.0603 L 359.159 117.754"/><path d="M 359.159 117.754 L 490.012 148.663"/><path d="M 490.012 148.663 L 490.012 209.281"/><circle cx="374.159" cy="89.8905" r="2.5"/><circle cx="394.28" cy="375.147" r="1.5"/><circle cx="394.28" cy="400.147" r="40"/><circle cx="394.28" cy="400.147" r="2.5"/><path d="M 367.189 300.743 A 10 10 0 1 0 387.189 300.743"/><path d="M 387.189 135.743 L 387.189 300.743"/><path d="M 387.189 135.743 A 10 10 0 0 0 367.189 135.743"/><path d="M 367.189 300.743 L 367.189 135.743"/><circle cx="377.189" cy="300.743" r="2.5"/><circle cx="377.189" cy="135.743" r="2.5"/><path d="M 374.689 260.743 L 374.689 175.743"/><path d="M 379.689 175.743 L 374.689 175.743"/><path d="M 379.689 175.743 L 379.689 260.743"/><path d="M 374.689 260.743 L 379.689 260.743"/><path d="M 36.3614 177.356 A 10 10 0 1 0 56.2915 176.489"/><path d="M 56.2915 176.489 L 52.2863 141.809"/><path d="M 52.2864 141.809 A 7.50001 7.50001 0 0 0 37.3388 142.459"/><path d="M 36.3614 177.356 L 37.3388 142.459"/><circle cx="46.3575" cy="177.636" r="2.49999"/><circle cx="44.8359" cy="142.669" r="2.49999"/><path d="M 353.659 173.28 L 353.659 358.28"/><path d="M 358.659 358.28 L 353.659 358.28"/><path d="M 358.659 358.28 L 358.659 173.28"/><path d="M 353.659 173.28 L 358.659 173.28"/><path d="M 408.659 173.28 L 408.659 358.28"/><path d="M 418.659 358.28 L 408.659 358.28"/><path d="M 418.659 358.28 L 418.659 173.28"/><path d="M 408.659 173.28 L 418.659 173.28"/><path d="M 198.228 144.368 L 258.228 144.368"/><path d="M 258.228 94.3682 L 258.228 144.368"/><path d="M 258.228 94.3682 L 198.228 94.3682"/><path d="M 198.228 144.368 L 198.228 94.3682"/><circle cx="248.228" cy="119.368" r="2.5"/><path d="M 332.034 160.907 A 15 15 0 0 0 361.464 155.197"/><path d="M 332.033 160.907 L 301.451 29.5119"/><path d="M 340.691 21.8985 A 20 20 0 1 0 301.451 29.5119"/><path d="M 361.464 155.197 L 340.691 21.8984"/><path d="M 349.2 139.184 L 353.485 161.272"/><path d="M 337.42 141.47 L 349.2 139.184"/><path d="M 341.705 163.558 L 337.42 141.47"/><path d="M 353.485 161.272 L 341.705 163.558"/><path d="M 164.973 178.192 A 15 15 0 1 0 173.225 207.025"/><path d="M 164.973 178.192 L 261.74 153.094"/><path d="M 173.225 207.025 L 268.617 177.121"/><path d="M 268.617 177.121 A 12.5 12.5 0 0 0 277.34 164.227"/><path d="M 275.964 159.42 A 12.5 12.5 0 0 0 261.74 153.094"/><path d="M 261.786 163.478 L 275.964 159.42"/><path d="M 263.162 168.285 L 261.786 163.478"/><path d="M 277.34 164.227 L 263.162 168.285"/><path d="M 299.554 204.153 L 333.387 204.153"/><path d="M 333.387 204.153 L 333.387 175.153"/><path d="M 333.387 175.153 A 16 16 0 0 0 317.387 159.153"/><path d="M 299.554 204.153 L 299.554 175.153"/><path d="M 315.554 159.153 L 317.387 159.153"/><path d="M 315.554 159.153 A 16 16 0 0 0 299.554 175.153"/><circle cx="17.7581" cy="146.381" r="2.5"/><path d="M 0.841825 121.381 L 34.6745 121.381"/><path d="M 34.6745 194.381 L 34.6745 121.381"/><path d="M 27.6745 201.381 A 7 7 0 0 0 34.6745 194.381"/><path d="M 0.841825 121.381 L 0.841825 194.381"/><path d="M 27.6745 201.381 L 7.84182 201.381"/><path d="M 0.841825 194.381 A 7 7 0 0 0 7.84182 201.381"/><path d="M 435.127 30.6495 A 118.21 118.21 0 0 0 399.415 49.4223"/><path d="M 396.367 45.4585 A 2.5 2.5 0 0 0 399.415 49.4224"/><path d="M 420.15 27.1728 L 396.367 45.4586"/><path d="M 420.15 27.1728 A 27.6196 27.6196 0 0 0 424.484 22.2116"/><path d="M 429.427 18.5131 A 9.52734 9.52734 0 0 0 424.484 22.2116"/><path d="M 431.124 4.58582 L 429.427 18.5131"/><path d="M 436.124 4.58582 L 431.124 4.58582"/><path d="M 436.124 4.58582 L 436.124 7.58582"/><path d="M 436.124 7.58582 L 437.418 12.4155"/><path d="M 437.418 12.4155 L 442.614 15.4155"/><path d="M 442.614 15.4155 L 449.614 15.4155"/><path d="M 456.614 15.4155 L 449.614 15.4155"/><path d="M 461.81 12.4155 L 456.614 15.4155"/><path d="M 463.104 7.58582 L 461.81 12.4155"/><path d="M 463.104 4.58582 L 463.104 7.58582"/><path d="M 463.104 4.58582 L 463.104 4.08582"/><path d="M 463.104 4.08582 L 463.766 5.08582"/><path d="M 463.766 5.08582 L 464.344 4.08582"/><path d="M 464.344 4.08582 L 465.005 5.08582"/><path d="M 465.005 5.08582 L 465.583 4.08582"/><path d="M 465.583 4.08582 L 466.245 5.08582"/><path d="M 466.245 5.08582 L 466.822 4.08582"/><path d="M 466.822 4.08582 L 467.484 5.08582"/><path d="M 467.484 5.08582 L 468.061 4.08582"/><path d="M 468.061 4.08582 L 468.723 5.08582"/><path d="M 468.723 5.08582 L 469.301 4.08582"/><path d="M 469.301 4.08582 L 469.962 5.08582"/><path d="M 469.962 5.08582 L 470.54 4.08582"/><path d="M 470.54 4.08582 L 471.202 5.08582"/><path d="M 471.202 5.08582 L 471.779 4.08582"/><path d="M 471.779 4.08582 L 472.441 5.08582"/><path d="M 472.441 5.08582 L 473.018 4.08582"/><path d="M 473.018 4.08582 L 473.104 4.08582"/><path d="M 473.104 4.58582 L 473.104 4.08582"/><path d="M 473.104 8.47083 L 473.104 4.58582"/><path d="M 463.674 21.4271 A 13.6156 13.6156 0 0 0 473.104 8.47083"/><path d="M 435.127 30.6496 L 463.674 21.4271"/><circle cx="431.374" cy="25.5563" r="1.75"/><circle cx="397.891" cy="47.4404" r="1.75"/><path d="M 389.753 39.0759 A 9.52734 9.52734 0 0 0 394.337 34.9414"/><path d="M 388.983 56.7203 L 389.753 39.0759"/><path d="M 383.983 56.7203 L 388.983 56.7203"/><path d="M 383.983 53.7203 L 383.983 56.7203"/><path d="M 382.689 48.8907 L 383.983 53.7203"/><path d="M 377.493 45.8907 L 382.689 48.8907"/><path d="M 370.493 45.8907 L 377.493 45.8907"/><path d="M 363.493 45.8907 L 370.493 45.8907"/><path d="M 358.296 48.8907 L 363.493 45.8907"/><path d="M 357.002 53.7203 L 358.296 48.8907"/><path d="M 357.002 56.2203 L 357.002 53.7203"/><path d="M 356.34 57.2203 L 357.002 56.2203"/><path d="M 355.763 56.2203 L 356.34 57.2203"/><path d="M 355.101 57.2203 L 355.763 56.2203"/><path d="M 354.524 56.2203 L 355.101 57.2203"/><path d="M 353.862 57.2203 L 354.524 56.2203"/><path d="M 353.285 56.2203 L 353.862 57.2203"/><path d="M 352.623 57.2203 L 353.285 56.2203"/><path d="M 352.045 56.2203 L 352.623 57.2203"/><path d="M 351.384 57.2203 L 352.045 56.2203"/><path d="M 350.806 56.2203 L 351.384 57.2203"/><path d="M 350.144 57.2203 L 350.806 56.2203"/><path d="M 349.567 56.2203 L 350.144 57.2203"/><path d="M 348.905 57.2203 L 349.567 56.2203"/><path d="M 348.328 56.2203 L 348.905 57.2203"/><path d="M 347.666 57.2203 L 348.328 56.2203"/><path d="M 347.088 56.2203 L 347.666 57.2203"/><path d="M 347.002 56.2203 L 347.088 56.2203"/><path d="M 347.002 56.2203 L 347.049 53.162 L 347.119 51.6245 L 347.264 50.0443 L 347.383 49.2617 L 347.526 48.554 L 347.708 47.8557 L 348.06 46.8261 L 348.502 45.8292 L 349.025 44.871 L 349.599 43.9886 L 350.236 43.1526 L 350.934 42.3683 L 351.817 41.5307 L 352.771 40.7764 L 353.603 40.2227 L 354.474 39.7308 L 355.382 39.3016"/><path d="M 355.382 39.3016 L 382.968 27.5106"/><path d="M 382.968 27.5106 A 118.21 118.21 0 0 0 416.816 5.55493"/><path d="M 420.213 9.22388 A 2.5 2.5 0 1 0 416.816 5.55493"/><path d="M 420.213 9.22394 L 398.2 29.6052"/><path d="M 398.2 29.6052 A 27.6196 27.6196 0 0 0 394.337 34.9413"/><circle cx="387.171" cy="32.2398" r="1.75"/><circle cx="418.515" cy="7.3894" r="1.75"/><path d="M 227.196 51.8985 A 22.5 17.5 -330 0 0 200.41 53.7543"/><path d="M 211.66 60.2496 L 200.41 53.7543"/><path d="M 209.16 64.5797 L 211.66 60.2496"/><path d="M 197.91 58.0844 L 209.16 64.5797"/><path d="M 197.91 58.0844 A 22.5 17.5 -330 0 0 209.696 82.2094"/><circle cx="226.659" cy="82.8289" r="2"/><path d="M 224.318 52.4829 L 244.237 63.9829"/><path d="M 224.318 52.4829 L 218.318 62.8752"/><path d="M 238.237 74.3752 L 244.237 63.9829"/><path d="M 238.237 74.3752 L 218.318 62.8752"/><path d="M 244.516 61.8985 L 227.196 51.8985"/><path d="M 246.346 68.7286 A 5.00001 5.00001 0 0 0 244.516 61.8985"/><path d="M 209.696 82.2094 L 227.016 92.2094"/><path d="M 233.846 90.3793 L 246.346 68.7286"/><path d="M 227.016 92.2094 A 5.00001 5.00001 0 0 0 233.846 90.3793"/><path d="M 347.197 26.0027 L 347.104 25.9402"/><path d="M 347.409 26.7613 A 0.600006 0.600006 0 0 0 347.197 26.0027"/><path d="M 347.104 25.9402 A 0.600006 0.600006 0 0 0 346.322 26.0345"/><path d="M 355.842 29.1899 L 355.783 29.2146"/><path d="M 355.485 29.3332 A 10.8 10.8 0 0 0 355.783 29.2146"/><path d="M 353.972 27.5564 A 3.28339 3.28339 0 0 0 355.485 29.3332"/><path d="M 353.972 27.5564 A 0.600006 0.600006 0 0 0 353.286 27.1699"/><path d="M 353.286 27.1699 L 353.176 27.1918"/><path d="M 353.176 27.1918 A 0.600006 0.600006 0 0 0 352.689 27.8116"/><path d="M 351.972 30.0319 A 3.28339 3.28339 0 0 0 352.689 27.8115"/><path d="M 351.329 30.0319 A 10.8 10.8 0 0 0 351.972 30.0319"/><path d="M 350.612 27.8115 A 3.28339 3.28339 0 0 0 351.329 30.0319"/><path d="M 350.612 27.8116 A 0.600006 0.600006 0 0 0 350.125 27.1918"/><path d="M 350.125 27.1918 L 350.015 27.1699"/><path d="M 350.015 27.1699 A 0.600006 0.600006 0 0 0 349.329 27.5564"/><path d="M 347.816 29.3332 A 3.28339 3.28339 0 0 0 349.329 27.5564"/><path d="M 347.222 29.0872 A 10.8 10.8 0 0 0 347.816 29.3332"/><path d="M 347.409 26.7613 A 3.28339 3.28339 0 0 0 347.222 29.0872"/><path d="M 344.244 27.0974 A 3.28339 3.28339 0 0 0 346.322 26.0345"/><path d="M 343.79 26.6428 A 10.8 10.8 0 0 0 344.244 27.0974"/><path d="M 344.853 24.5655 A 3.28339 3.28339 0 0 0 343.79 26.6428"/><path d="M 344.853 24.5655 A 0.600006 0.600006 0 0 0 344.947 23.7834"/><path d="M 344.947 23.7834 L 344.884 23.6899"/><path d="M 344.884 23.6899 A 0.600006 0.600006 0 0 0 344.126 23.4778"/><path d="M 341.8 23.6648 A 3.28339 3.28339 0 0 0 344.126 23.4778"/><path d="M 341.554 23.0709 A 10.8 10.8 0 0 0 341.8 23.6648"/><path d="M 343.331 21.5584 A 3.28339 3.28339 0 0 0 341.554 23.0709"/><path d="M 343.331 21.5584 A 0.600006 0.600006 0 0 0 343.717 20.872"/><path d="M 343.717 20.872 L 343.695 20.7618"/><path d="M 343.695 20.7618 A 0.600006 0.600006 0 0 0 343.076 20.2755"/><path d="M 340.855 19.5581 A 3.28339 3.28339 0 0 0 343.076 20.2755"/><path d="M 340.855 18.9153 A 10.8 10.8 0 0 0 340.855 19.5581"/><path d="M 343.076 18.1979 A 3.28339 3.28339 0 0 0 340.855 18.9153"/><path d="M 343.076 18.1979 A 0.600006 0.600006 0 0 0 343.695 17.7117"/><path d="M 343.695 17.7117 L 343.717 17.6014"/><path d="M 343.717 17.6014 A 0.600006 0.600006 0 0 0 343.331 16.915"/><path d="M 341.554 15.4025 A 3.28339 3.28339 0 0 0 343.331 16.915"/><path d="M 341.8 14.8086 A 10.8 10.8 0 0 0 341.554 15.4025"/><path d="M 344.126 14.9955 A 3.28339 3.28339 0 0 0 341.8 14.8086"/><path d="M 344.126 14.9955 A 0.600006 0.600006 0 0 0 344.884 14.7834"/><path d="M 344.884 14.7834 L 344.947 14.6899"/><path d="M 344.947 14.6899 A 0.600006 0.600006 0 0 0 344.853 13.9079"/><path d="M 343.79 11.8306 A 3.28339 3.28339 0 0 0 344.853 13.9079"/><path d="M 344.244 11.376 A 10.8 10.8 0 0 0 343.79 11.8306"/><path d="M 346.322 12.4388 A 3.28339 3.28339 0 0 0 344.244 11.376"/><path d="M 346.322 12.4388 A 0.600006 0.600006 0 0 0 347.104 12.5332"/><path d="M 347.104 12.5332 L 347.197 12.4707"/><path d="M 347.197 12.4707 A 0.600006 0.600006 0 0 0 347.409 11.7121"/><path d="M 347.222 9.38623 A 3.28339 3.28339 0 0 0 347.409 11.7121"/><path d="M 347.816 9.1402 A 10.8 10.8 0 0 0 347.222 9.38623"/><path d="M 349.329 10.9171 A 3.28339 3.28339 0 0 0 347.816 9.14026"/><path d="M 349.329 10.917 A 0.600006 0.600006 0 0 0 350.015 11.3035"/><path d="M 350.015 11.3035 L 350.125 11.2816"/><path d="M 350.125 11.2816 A 0.600006 0.600006 0 0 0 350.612 10.6618"/><path d="M 351.329 8.44153 A 3.28339 3.28339 0 0 0 350.612 10.6619"/><path d="M 351.972 8.44147 A 10.8 10.8 0 0 0 351.329 8.44147"/><path d="M 352.689 10.6619 A 3.28339 3.28339 0 0 0 351.972 8.44153"/><path d="M 352.689 10.6618 A 0.600006 0.600006 0 0 0 353.176 11.2816"/><path d="M 353.176 11.2816 L 353.286 11.3035"/><path d="M 353.286 11.3035 A 0.600006 0.600006 0 0 0 353.972 10.917"/><path d="M 355.485 9.14026 A 3.28339 3.28339 0 0 0 353.972 10.9171"/><path d="M 356.079 9.38623 A 10.8 10.8 0 0 0 355.485 9.1402"/><path d="M 355.892 11.7121 A 3.28339 3.28339 0 0 0 356.079 9.38623"/><path d="M 355.892 11.7121 A 0.600006 0.600006 0 0 0 356.104 12.4707"/><path d="M 356.104 12.4707 L 356.197 12.5332"/><path d="M 356.197 12.5332 A 0.600006 0.600006 0 0 0 356.979 12.4388"/><path d="M 359.057 11.376 A 3.28339 3.28339 0 0 0 356.979 12.4388"/><path d="M 359.511 11.8306 A 10.8 10.8 0 0 0 359.057 11.376"/><path d="M 358.448 13.9079 A 3.28339 3.28339 0 0 0 359.511 11.8306"/><path d="M 358.448 13.9079 A 0.600006 0.600006 0 0 0 358.354 14.6899"/><path d="M 358.354 14.6899 L 358.416 14.7834"/><path d="M 358.416 14.7834 A 0.600006 0.600006 0 0 0 359.175 14.9955"/><path d="M 361.501 14.8086 A 3.28339 3.28339 0 0 0 359.175 14.9955"/><path d="M 361.747 15.4025 A 10.8 10.8 0 0 0 361.501 14.8086"/><path d="M 359.97 16.915 A 3.28339 3.28339 0 0 0 361.747 15.4025"/><path d="M 359.97 16.915 A 0.600006 0.600006 0 0 0 359.584 17.6014"/><path d="M 359.584 17.6014 L 359.606 17.7117"/><path d="M 359.606 17.7117 A 0.600006 0.600006 0 0 0 359.682 17.9103"/><circle cx="351.65" cy="19.2367" r="0.899994"/><path d="M 375.533 17.9103 L 381.797 9.68671"/><path d="M 359.682 17.9103 L 375.533 17.9103"/><path d="M 381.797 9.68671 L 391.563 9.68671"/><path d="M 391.563 9.68671 L 378.692 26.5838"/><path d="M 378.692 26.5838 L 373.282 28.4626"/><path d="M 373.282 28.4626 L 355.842 29.1899"/><path d="M 170.165 235.302 L 170.172 235.414"/><path d="M 170.165 235.302 A 0.599998 0.599998 0 0 0 169.614 234.739"/><path d="M 169.7 236.044 A 0.599998 0.599998 0 0 0 170.172 235.414"/><path d="M 171.677 226.26 A 10.8 10.8 0 0 0 171.424 226.46"/><path d="M 171.727 226.221 L 171.677 226.26"/><path d="M 171.424 226.46 A 3.28339 3.28339 0 0 0 172.207 228.658"/><path d="M 172.198 229.445 A 0.599998 0.599998 0 0 0 172.207 228.658"/><path d="M 172.198 229.445 L 172.124 229.53"/><path d="M 171.345 229.641 A 0.599998 0.599998 0 0 0 172.124 229.53"/><path d="M 171.345 229.641 A 3.28339 3.28339 0 0 0 169.063 229.152"/><path d="M 169.063 229.152 A 10.8 10.8 0 0 0 168.742 229.709"/><path d="M 168.742 229.709 A 3.28339 3.28339 0 0 0 170.306 231.44"/><path d="M 170.599 232.171 A 0.599998 0.599998 0 0 0 170.306 231.44"/><path d="M 170.599 232.171 L 170.563 232.278"/><path d="M 169.885 232.679 A 0.599998 0.599998 0 0 0 170.563 232.278"/><path d="M 169.885 232.679 A 3.28339 3.28339 0 0 0 167.59 233.101"/><path d="M 167.59 233.101 A 10.8 10.8 0 0 0 167.506 233.738"/><path d="M 167.506 233.738 A 3.28339 3.28339 0 0 0 169.614 234.739"/><path d="M 169.7 236.044 A 3.28339 3.28339 0 0 0 167.741 237.312"/><path d="M 167.741 237.312 A 10.8 10.8 0 0 0 167.907 237.933"/><path d="M 167.907 237.933 A 3.28339 3.28339 0 0 0 170.237 238.051"/><path d="M 170.962 238.36 A 0.599998 0.599998 0 0 0 170.237 238.051"/><path d="M 170.962 238.36 L 171.012 238.461"/><path d="M 170.816 239.224 A 0.599998 0.599998 0 0 0 171.012 238.461"/><path d="M 170.816 239.224 A 3.28339 3.28339 0 0 0 169.491 241.145"/><path d="M 169.491 241.145 A 10.8 10.8 0 0 0 169.882 241.655"/><path d="M 169.882 241.655 A 3.28339 3.28339 0 0 0 172.081 240.872"/><path d="M 172.868 240.881 A 0.599998 0.599998 0 0 0 172.081 240.872"/><path d="M 172.868 240.881 L 172.953 240.955"/><path d="M 173.064 241.735 A 0.599998 0.599998 0 0 0 172.953 240.955"/><path d="M 173.064 241.735 A 3.28339 3.28339 0 0 0 172.575 244.016"/><path d="M 172.575 244.017 A 10.8 10.8 0 0 0 173.132 244.338"/><path d="M 173.132 244.338 A 3.28339 3.28339 0 0 0 174.863 242.774"/><path d="M 175.594 242.48 A 0.599998 0.599998 0 0 0 174.863 242.774"/><path d="M 175.594 242.48 L 175.701 242.516"/><path d="M 176.102 243.194 A 0.599998 0.599998 0 0 0 175.701 242.516"/><path d="M 176.102 243.194 A 3.28339 3.28339 0 0 0 176.523 245.489"/><path d="M 176.523 245.489 A 10.8 10.8 0 0 0 177.161 245.573"/><path d="M 177.161 245.573 A 3.28339 3.28339 0 0 0 178.162 243.465"/><path d="M 178.725 242.914 A 0.599998 0.599998 0 0 0 178.162 243.465"/><path d="M 178.725 242.914 L 178.837 242.907"/><path d="M 179.467 243.38 A 0.599998 0.599998 0 0 0 178.837 242.907"/><path d="M 179.467 243.38 A 3.28339 3.28339 0 0 0 180.735 245.339"/><path d="M 180.735 245.339 A 10.8 10.8 0 0 0 181.356 245.172"/><path d="M 181.356 245.172 A 3.28339 3.28339 0 0 0 181.474 242.842"/><path d="M 181.783 242.118 A 0.599998 0.599998 0 0 0 181.474 242.842"/><path d="M 181.783 242.118 L 181.884 242.068"/><path d="M 182.647 242.264 A 0.599998 0.599998 0 0 0 181.884 242.068"/><path d="M 182.647 242.264 A 3.28339 3.28339 0 0 0 184.568 243.588"/><path d="M 184.568 243.588 A 10.8 10.8 0 0 0 185.078 243.197"/><path d="M 185.078 243.197 A 3.28339 3.28339 0 0 0 184.295 240.999"/><path d="M 184.304 240.211 A 0.599998 0.599998 0 0 0 184.295 240.999"/><path d="M 184.304 240.211 L 184.378 240.127"/><path d="M 185.158 240.015 A 0.599998 0.599998 0 0 0 184.378 240.127"/><path d="M 185.158 240.015 A 3.28339 3.28339 0 0 0 187.439 240.504"/><path d="M 187.439 240.504 A 10.8 10.8 0 0 0 187.761 239.948"/><path d="M 187.761 239.948 A 3.28339 3.28339 0 0 0 186.197 238.216"/><path d="M 185.903 237.485 A 0.599998 0.599998 0 0 0 186.197 238.216"/><path d="M 185.903 237.485 L 185.939 237.379"/><path d="M 186.617 236.977 A 0.599998 0.599998 0 0 0 185.939 237.379"/><path d="M 186.617 236.977 A 3.28339 3.28339 0 0 0 188.912 236.556"/><path d="M 188.912 236.556 A 10.8 10.8 0 0 0 188.996 235.919"/><path d="M 188.996 235.919 A 3.28339 3.28339 0 0 0 186.888 234.918"/><path d="M 186.337 234.355 A 0.599998 0.599998 0 0 0 186.888 234.918"/><path d="M 186.337 234.355 L 186.33 234.242"/><path d="M 186.803 233.612 A 0.599998 0.599998 0 0 0 186.33 234.242"/><path d="M 186.803 233.612 A 3.28339 3.28339 0 0 0 188.762 232.345"/><path d="M 188.762 232.345 A 10.8 10.8 0 0 0 188.595 231.724"/><path d="M 188.595 231.724 A 3.28339 3.28339 0 0 0 186.265 231.606"/><path d="M 185.541 231.296 A 0.599998 0.599998 0 0 0 186.265 231.606"/><path d="M 185.541 231.296 L 185.491 231.195"/><path d="M 185.686 230.432 A 0.599998 0.599998 0 0 0 185.491 231.195"/><path d="M 185.686 230.432 A 3.28339 3.28339 0 0 0 187.011 228.512"/><path d="M 187.011 228.512 A 10.8 10.8 0 0 0 186.62 228.002"/><path d="M 186.62 228.002 A 3.28339 3.28339 0 0 0 184.422 228.784"/><path d="M 183.634 228.776 A 0.599998 0.599998 0 0 0 184.422 228.784"/><path d="M 183.634 228.776 L 183.549 228.701"/><path d="M 183.416 228.536 A 0.599998 0.599998 0 0 0 183.549 228.701"/><circle cx="178.251" cy="234.828" r="0.900002"/><path d="M 191.341 214.809 L 201.595 213.496"/><path d="M 183.416 228.536 L 191.341 214.809"/><path d="M 201.595 213.496 L 206.478 205.038"/><path d="M 206.478 205.038 L 185.409 207.736"/><path d="M 185.409 207.736 L 181.077 211.482"/><path d="M 181.077 211.482 L 171.727 226.221"/></g></svg>